<?xml version="1.0" encoding="UTF-8"?>
<svg version="1.1" xmlns="http://www.w3.org/2000/svg" width="1920" height="1280">
<path d="M0 0 C633.6 0 1267.2 0 1920 0 C1920 422.4 1920 844.8 1920 1280 C1286.4 1280 652.8 1280 0 1280 C0 857.6 0 435.2 0 0 Z " fill="#180038" transform="translate(0,0)"/>
<path d="M0 0 C15.18 0 30.36 0 46 0 C43.17212055 34.47319714 43.17212055 34.47319714 41.56994629 50.934021 C40.57668058 61.14189417 39.65302826 71.32475228 39.37841797 81.58178711 C39.10710194 90.0978849 37.99176607 98.54388927 37 107 C38.00450195 106.94465088 39.00900391 106.88930176 40.04394531 106.83227539 C44.77911882 106.57236245 49.51453294 106.31700162 54.25 106.0625 C55.11522278 106.01576141 55.98044556 105.96902283 56.87188721 105.92086792 C67.70602781 105.33852064 78.52922602 104.86401588 89.375 104.5625 C111.1422685 103.89512621 133.43780545 102.402746 154.66796875 97.3671875 C162.88165579 95.46450633 168.77861192 96 178 96 C178 110.52 178 125.04 178 140 C156.10940454 140 156.10940454 140 144.95703125 138.5703125 C115.67904051 135.04428381 85.7945522 134.12984341 56.328125 133.44140625 C54.53466264 133.39771997 52.74120556 133.35381621 50.94775391 133.30969238 C46.63189235 133.20397004 42.31597136 133.10113614 38 133 C38.07884227 177.60113961 38.1587044 222.20227734 38.2436676 266.80340576 C38.24493928 267.47111385 38.24621096 268.13882194 38.24752118 268.8267636 C38.27521149 283.3627837 38.30307559 297.89880345 38.33111694 312.43482287 C38.34488156 319.57064357 38.35860806 326.70646434 38.37231445 333.84228516 C38.37436058 334.90703114 38.37436058 334.90703114 38.37644804 335.99328714 C38.42007716 358.70584666 38.46122484 381.41840978 38.50098413 404.13097637 C38.54210181 427.61161326 38.58592476 451.09224375 38.63282111 474.57286984 C38.63955268 477.94390201 38.64625552 481.31493423 38.65294075 484.68596649 C38.65425648 485.34897341 38.65557221 486.01198032 38.6569278 486.69507835 C38.6761891 496.43514643 38.69326357 506.17521659 38.70907402 515.91529083 C38.75895018 546.25834711 38.83595094 576.60115259 38.95762194 606.94401081 C38.98761932 614.50744224 39.01301204 622.07087546 39.03569995 629.63433217 C39.0752417 642.7334985 39.12933476 655.83247157 39.20700242 668.93147121 C39.24340236 675.10618667 39.27448107 681.28077842 39.28886497 687.45558786 C39.40961197 735.17647359 41.6199901 783.48443041 50.54003906 830.48828125 C51.49761625 835.71734392 52.19808972 840.98920282 52.94335938 846.25195312 C53.06646484 847.09822266 53.18957031 847.94449219 53.31640625 848.81640625 C53.42412354 849.57381104 53.53184082 850.33121582 53.64282227 851.11157227 C53.92600978 853.07968426 53.92600978 853.07968426 55 855 C55 857.31 55 859.62 55 862 C35.2 862.33 15.4 862.66 -5 863 C-3.87897097 847.30559362 -3.87897097 847.30559362 -2.94921875 841.015625 C-2.74476801 839.59504429 -2.54085371 838.17438629 -2.33740234 836.75366211 C-2.1784549 835.65754105 -2.1784549 835.65754105 -2.01629639 834.53927612 C6.08016467 778.16689573 8.46818466 721.42788373 8.43377901 664.53103608 C8.43014594 657.45443693 8.44442671 650.37789486 8.45882157 643.30131334 C8.48489532 630.25501719 8.49772634 617.20874221 8.50238609 604.16242218 C8.50702991 591.28823732 8.51794311 578.41408153 8.53681374 565.53990936 C8.53799386 564.73247096 8.53917399 563.92503255 8.54038988 563.09312632 C8.54641722 558.99076576 8.55255256 554.88840538 8.55872939 550.78604504 C8.60202436 521.9034322 8.63188942 493.02082009 8.65356445 464.13818359 C8.67462251 436.11961831 8.70194565 408.10107027 8.73754883 380.08251953 C8.73864831 379.21533618 8.73974778 378.34815284 8.74088058 377.45469121 C8.75193111 368.74424233 8.76310684 360.03379362 8.7743742 351.32334502 C8.79731405 333.58704455 8.81941955 315.85074307 8.84101868 298.11444092 C8.8420123 297.29936898 8.84300591 296.48429703 8.84402964 295.64452594 C8.91002515 241.42969797 8.95652436 187.21485014 9 133 C7.91127563 133.06998955 6.82255125 133.1399791 5.70083523 133.21208954 C4.25290649 133.30415783 2.80497472 133.39617852 1.35704041 133.48815918 C0.64178113 133.53426708 -0.07347814 133.58037498 -0.81041193 133.6278801 C-6.49679802 133.98764488 -12.17391472 134.19043415 -17.87109375 134.28125 C-19.78320347 134.31899315 -21.69531283 134.35675407 -23.60742188 134.39453125 C-26.53863633 134.4482517 -29.46987186 134.50057069 -32.40112305 134.55224609 C-35.28702247 134.604339 -38.17279523 134.6613752 -41.05859375 134.71875 C-42.35729652 134.73911316 -42.35729652 134.73911316 -43.68223572 134.7598877 C-48.46966532 134.85647825 -53.15427048 135.18504775 -57.907547 135.76043701 C-60.95618429 136.10947265 -64.0065056 136.27088082 -67.0703125 136.4296875 C-68.36775391 136.5013916 -69.66519531 136.5730957 -71.00195312 136.64697266 C-72.01140991 136.70247284 -72.01140991 136.70247284 -73.04125977 136.75909424 C-84.45119917 137.39375958 -95.74356936 138.21245524 -107.03955078 140.03466797 C-115.26426615 141.28699089 -122.32223467 141 -131 141 C-131 126.15 -131 111.3 -131 96 C-115.30780651 97.12087096 -115.30780651 97.12087096 -108.5859375 98.0859375 C-107.08853599 98.29570713 -105.59105526 98.50491184 -104.09350586 98.71362305 C-103.3265036 98.82169281 -102.55950134 98.92976257 -101.76925659 99.04110718 C-64.60811881 104.22344111 -27.48198305 105.81951854 10 107 C8.4011447 86.39009814 6.53920433 65.81488146 4.4375 45.25 C4.27889999 43.6902092 4.27889999 43.6902092 4.11709595 42.09890747 C2.99941733 31.13526504 1.83406686 20.18955019 0.35180664 9.26855469 C0 6 0 6 0 0 Z " fill="#F9F8FA" transform="translate(424,127)"/>
<path d="M0 0 C4.28487495 3.33378752 7.29139984 6.44424336 10.3203125 11.015625 C10.70109955 11.58410156 11.0818866 12.15257812 11.47421265 12.73828125 C12.69925851 14.57025602 13.91193807 16.41007379 15.125 18.25 C16.39979545 20.16096812 17.67795052 22.06965863 18.95635986 23.97821045 C19.80042266 25.23864674 20.64348801 26.49975157 21.48553467 27.76153564 C24.74779687 32.64575571 28.08929664 37.46809586 31.5 42.25 C35.19904354 47.44436116 38.84332976 52.67000373 42.4375 57.9375 C46.36864104 63.69198503 50.40333622 69.36227337 54.5 75 C59.01615768 81.21633486 63.43856544 87.48438865 67.7722168 93.82910156 C71.41602633 99.16176091 75.10540122 104.46115801 78.8125 109.75 C79.68950562 111.00176025 79.68950562 111.00176025 80.58422852 112.27880859 C83.62728793 116.62033427 86.67402146 120.95926304 89.72265625 125.296875 C90.33455811 126.16860352 90.94645996 127.04033203 91.5769043 127.93847656 C92.72688261 129.57670772 93.87797921 131.21415483 95.03051758 132.85058594 C98.75789042 138.16238752 102.37461652 143.54114367 105.96435547 148.94677734 C108.56017591 152.84019669 111.1947142 156.70633142 113.83300781 160.57104492 C117.17505782 165.46704429 120.50427069 170.3717443 123.83166504 175.27770996 C124.60893486 176.42351499 125.38652148 177.56910517 126.16442871 178.71447754 C136.65246794 194.15969814 146.87162382 209.69785862 156 226 C156.3825293 226.67836914 156.76505859 227.35673828 157.15917969 228.05566406 C161.93519717 236.63653113 165.16109457 245.34750155 167 255 C167.16811849 255.83888417 167.33623697 256.67776834 167.50944996 257.54207325 C169.65887773 270.06997591 169.27266618 282.67868063 169.24291992 295.34838867 C169.24399425 298.0092513 169.24585555 300.67010286 169.24867249 303.33096313 C169.25368653 309.78177508 169.24810744 316.2325353 169.23882218 322.68334081 C169.22837451 330.21624832 169.22851009 337.74914501 169.22899476 345.2820584 C169.22949428 358.73826134 169.22036566 372.19444043 169.20581055 385.65063477 C169.19173953 398.66626419 169.1846393 411.68187263 169.18530273 424.69750977 C169.18534269 425.49853877 169.18538265 426.29956777 169.18542381 427.12487038 C169.18546417 427.92460026 169.18550452 428.72433013 169.1855461 429.54829425 C169.18623887 444.4198136 169.18032741 459.29132415 169.17139288 474.16284063 C169.16839573 479.3954126 169.1673156 484.62798292 169.16686058 489.86055565 C169.16617302 496.254048 169.16163436 502.64752552 169.15252777 509.04101159 C169.14796148 512.29402189 169.14538633 515.54701003 169.14612198 518.80002403 C169.1477076 530.08929785 169.14064754 541.36696993 168.56904602 552.64424133 C168.53246484 553.37447988 168.49588366 554.10471842 168.45819396 554.85708541 C166.73433582 584.2353248 155.49342873 614.01594714 133.62890625 634.1875 C124.87317328 641.58434321 115.06201615 646.2142536 104 649 C103.0177243 649.25546097 102.03544861 649.51092194 101.02340698 649.77412415 C91.6934286 652.00568593 82.86065542 652.39632576 73.3203125 652.29296875 C71.77090878 652.28735574 70.22149963 652.28309374 68.67208862 652.28010559 C64.64435457 652.26879067 60.61695837 652.23944317 56.58935547 652.20599365 C52.45935635 652.17500025 48.32930128 652.16153849 44.19921875 652.14648438 C36.1326595 652.11455681 28.06637207 652.06352797 20 652 C19.5128628 649.11612521 19.02743041 646.23198066 18.54296875 643.34765625 C18.40564331 642.53574829 18.26831787 641.72384033 18.12683105 640.8873291 C16.91512876 633.65927746 15.94651111 626.56429826 15.98046875 619.22265625 C15.98328857 618.42738525 15.9861084 617.63211426 15.98901367 616.81274414 C15.99263916 616.21453857 15.99626465 615.61633301 16 615 C16.63210388 614.99635437 17.26420776 614.99270874 17.91546631 614.98895264 C24.60154683 614.94655887 31.28697657 614.87683413 37.97265625 614.79248047 C40.45501132 614.7645636 42.93745046 614.74320644 45.41992188 614.72900391 C69.14760025 614.58525787 93.50141479 613.80505276 112 597 C128.92691059 577.9225393 128.4545351 551.45570744 128.37231445 527.54931641 C128.37474793 525.04546966 128.37847261 522.54162389 128.38337708 520.03778076 C128.39174593 513.99135314 128.3863444 507.94508697 128.37411413 501.89867814 C128.36037375 494.83835348 128.36214234 487.77805638 128.36424746 480.71772175 C128.36742416 468.1137105 128.35584324 455.50975611 128.33618164 442.90576172 C128.31715882 430.70782747 128.3101021 418.50995974 128.31567383 406.31201172 C128.32174464 392.98228084 128.32153262 379.65257906 128.310188 366.32285058 C128.30898086 364.89928905 128.30777488 363.47572752 128.30657005 362.05216599 C128.30596651 361.35198778 128.30536298 360.65180958 128.30474115 359.93041385 C128.30087922 355.02157486 128.3012488 350.11274678 128.3031559 345.20390701 C128.30551112 338.58977399 128.29687978 331.97571364 128.2810955 325.36159515 C128.27687092 322.94175695 128.27598973 320.52191013 128.27878571 318.10206985 C128.33214538 300.95127497 128.33214538 300.95127497 126 284 C125.71152809 282.40270609 125.4247178 280.80510983 125.140625 279.20703125 C118.94669098 247.85635732 104.83419064 219.33236202 87 193 C86.55543457 192.33935547 86.11086914 191.67871094 85.65283203 190.99804688 C75.26966991 175.5959138 64.30991879 160.62985829 53.01293945 145.88793945 C48.0270215 139.37468514 43.14330959 132.79358684 38.2980957 126.17529297 C33.85523683 120.12241014 29.31509005 114.14854878 24.75 108.1875 C22.16187019 104.79529402 19.57860494 101.39945152 17 98 C16.46761719 97.29907227 15.93523437 96.59814453 15.38671875 95.87597656 C3.59974853 80.2559085 0.76109716 66.42530693 0.375 47.125 C0.33704011 45.53547289 0.29870576 43.94595468 0.26000977 42.35644531 C-0.06541839 28.23795231 -0.11210464 14.12173508 0 0 Z " fill="#FAFAFB" transform="translate(480,337)"/>
<path d="M0 0 C0.33 0 0.66 0 1 0 C1.06783244 9.51845709 1.06406166 19.03541077 1.01245117 28.55389404 C1.0040245 30.20936428 0.99706783 31.86484254 0.99145508 33.52032471 C0.97319894 38.70642462 0.92685531 43.89110998 0.84640503 49.07662964 C0.824053 50.75665316 0.80996487 52.43680986 0.80471802 54.11697388 C0.72846524 73.61015667 -6.0396583 87.06837148 -18.5 101.94921875 C-26.5868895 111.81775109 -33.95705786 122.29192246 -41.50219727 132.57568359 C-45.97097503 138.64843447 -50.53557061 144.64313074 -55.125 150.625 C-61.48360826 158.92626329 -67.59961191 167.36099821 -73.56445312 175.94824219 C-75.02219804 178.03172659 -76.49992339 180.09953585 -77.984375 182.1640625 C-109.60134041 226.21478107 -128.25548517 272.83799509 -128.31884766 327.48022461 C-128.32817685 329.35710568 -128.33834979 331.23398272 -128.34928894 333.1108551 C-128.37633448 338.15742431 -128.39167346 343.20396596 -128.40471697 348.25058818 C-128.42053744 353.58599939 -128.44728812 358.92135678 -128.4727478 364.25672913 C-128.51938042 374.37525395 -128.55616439 384.49378961 -128.58942068 394.61236626 C-128.62736512 405.99741503 -128.67703542 417.3824031 -128.72740483 428.76740253 C-128.86060269 458.35987931 -128.86060269 458.35987931 -128.95403481 487.95249844 C-128.95620951 488.86416104 -128.95838421 489.77582364 -128.96062481 490.71511239 C-128.96491251 492.51980167 -128.96913279 494.32449112 -128.97328269 496.12918073 C-128.98695178 501.3035455 -129.01590424 506.47752073 -129.05939496 511.65171927 C-129.08511187 514.84870323 -129.10300658 518.04570474 -129.11963725 521.24274743 C-129.12915532 522.69646212 -129.14222145 524.15015942 -129.15942121 525.60380352 C-129.32683366 539.91404259 -127.7726493 552.51934226 -122.375 565.8125 C-121.93494629 566.92890869 -121.49489258 568.04531738 -121.04150391 569.19555664 C-118.08404711 576.60093035 -114.90358707 583.87973089 -111.33740234 591.01293945 C-109.90752723 593.89016346 -109 595.73662151 -109 599 C-108.44957031 599.25910156 -107.89914062 599.51820313 -107.33203125 599.78515625 C-103.70378351 601.67524846 -100.36029908 603.99312629 -96.94921875 606.24609375 C-91.15293108 609.69315755 -85.57222412 611.51703885 -79 612.625 C-78.32710938 612.74617187 -77.65421875 612.86734375 -76.9609375 612.9921875 C-74.97681067 613.34458068 -72.98839487 613.67254608 -71 614 C-69.99445068 614.17184814 -68.98890137 614.34369629 -67.95288086 614.52075195 C-62.90039153 615.13331675 -57.90154559 615.23257875 -52.81640625 615.31640625 C-51.76090073 615.33718735 -50.7053952 615.35796844 -49.61790466 615.37937927 C-46.2661655 615.44444848 -42.914352 615.50356052 -39.5625 615.5625 C-37.28189354 615.60572581 -35.00129443 615.64934136 -32.72070312 615.69335938 C-27.14721262 615.80008584 -21.57364917 615.90192922 -16 616 C-15.61252628 628.42068542 -16.79986875 640.65077713 -18 653 C-25.73832725 653.0703939 -33.47657553 653.12325436 -41.21514511 653.15543652 C-44.81086513 653.17090446 -48.40636168 653.19178326 -52.00195312 653.22631836 C-93.8848588 653.61778337 -93.8848588 653.61778337 -112 646 C-112.93328125 645.61457031 -113.8665625 645.22914063 -114.828125 644.83203125 C-134.49306499 635.86713214 -148.12858826 621.77993221 -156.21191406 601.92285156 C-156.96839197 600.07712047 -157.77616756 598.25266713 -158.5859375 596.4296875 C-171.41549917 565.92005059 -168.71648083 529.85769637 -168.58121496 497.57609665 C-168.55267161 490.57451743 -168.55190005 483.57300291 -168.55173159 476.57137537 C-168.55055404 464.07061956 -168.52585948 451.57002689 -168.48706055 439.06933594 C-168.44960872 426.99444625 -168.42845433 414.91967489 -168.42553711 402.84472656 C-168.4253543 402.09833742 -168.42517149 401.35194829 -168.42498314 400.58294129 C-168.42480417 399.83771455 -168.4246252 399.0924878 -168.4244408 398.32467842 C-168.42407533 396.82351812 -168.42370295 395.32235781 -168.42332363 393.82119751 C-168.42313812 393.08051376 -168.4229526 392.33983 -168.42276147 391.57670128 C-168.41918046 379.97745677 -168.40073568 368.37822998 -168.38083039 356.77900374 C-168.37385376 352.60567832 -168.36904504 348.43235709 -168.36586904 344.25902712 C-168.36031194 337.02527277 -168.34448347 329.79163311 -168.31768227 322.55791855 C-168.31029843 320.16877918 -168.30617401 317.77962696 -168.30570221 315.39047623 C-168.29933458 299.00776029 -167.86667233 282.92434081 -163.875 266.9375 C-163.55196899 265.63425781 -163.55196899 265.63425781 -163.22241211 264.3046875 C-150.64281026 215.15728855 -122.47674915 173.94641236 -93.47949219 133.08837891 C-91.99499848 130.9929401 -90.5161166 128.89365709 -89.0390625 126.79296875 C-83.2932104 118.62408743 -77.49651098 110.49505947 -71.62719727 102.41430664 C-67.68942449 96.98557546 -63.83329 91.50291025 -60 86 C-53.17047257 76.20111281 -46.33255661 66.41376885 -39.3125 56.75 C-34.81238394 50.55312995 -30.41185148 44.29959317 -26.09741211 37.97216797 C-22.74750062 33.06448372 -19.3214681 28.21522024 -15.875 23.375 C-11.26456782 16.89134699 -6.88677493 10.29192201 -2.64453125 3.5625 C-1 1 -1 1 0 0 Z " fill="#FBFBFB" transform="translate(415,336)"/>
<path d="M0 0 C2.93178542 2.10919815 5.46205598 4.43599906 8 7 C9.01900391 7.95132812 9.01900391 7.95132812 10.05859375 8.921875 C19.85440585 18.77323991 22.54172325 29.6668629 22.5625 43.125 C22.41573681 51.75134023 21.77129527 59.78208978 19 68 C18.73316406 68.87269531 18.46632813 69.74539063 18.19140625 70.64453125 C13.98406131 82.8177826 4.33882639 92.41889586 -6.9375 98.25 C-21.06591487 104.93959037 -38.84387775 108.63485844 -54.125 103.4375 C-56.59375 102.3203125 -56.59375 102.3203125 -59 101 C-59.9178125 100.50242187 -60.835625 100.00484375 -61.78125 99.4921875 C-75.45010287 91.41855187 -83.72483644 79.99697061 -89.0078125 65.171875 C-89.57902285 62.7422197 -89.86005854 60.49173539 -90 58 C-90.06703125 56.93652344 -90.1340625 55.87304688 -90.203125 54.77734375 C-90.76146075 36.77101594 -85.37899003 21.1852844 -73 8 C-68.34923431 3.49654363 -62.71423413 0.67414235 -57 -2.25 C-56.33548828 -2.5917627 -55.67097656 -2.93352539 -54.98632812 -3.28564453 C-38.09363409 -11.6198719 -16.06424704 -9.53490792 0 0 Z " fill="#F7F5F8" transform="translate(1343,404)"/>
<path d="M0 0 C6.27 0 12.54 0 19 0 C21.25 6.875 21.25 6.875 21.93066406 8.97216797 C23.14801775 12.65572985 24.48831402 16.25881665 25.953125 19.8515625 C28.38652502 25.85463856 30.36276488 31.98443754 32.35546875 38.14453125 C34.0249836 43.24372819 35.85489699 48.22617645 37.87695312 53.1953125 C40.01483169 58.53443185 41.99553323 63.9340356 44.00292969 69.32324219 C45.14929471 72.4008 46.29728057 75.47775111 47.4453125 78.5546875 C50.54497587 86.86378875 53.64219915 95.17379883 56.73937988 103.48382568 C57.23070157 104.80207419 57.72203961 106.1203166 58.21339417 107.43855286 C58.69943207 108.74262841 59.18538449 110.04673583 59.67124939 111.35087585 C60.8491671 114.51208222 62.02919174 117.67246399 63.2121582 120.83178711 C65.12438497 125.94157602 67.03078136 131.05074169 68.84765625 136.1953125 C69.11280029 136.93575806 69.37794434 137.67620361 69.65112305 138.43908691 C70.30525565 140.27319531 70.94638065 142.11193016 71.5859375 143.95117188 C73.58475349 148.26077376 76.09593732 151.91931578 80.3125 154.3125 C83.85576139 155.2189157 87.36714967 155.57616746 91 156 C92 157 92 157 92 162 C71.21 162 50.42 162 29 162 C29 159.69 29 157.38 29 155 C34.2328736 153.5311232 38.51764524 152.89367554 44 153 C41.8598734 139.87488794 38.43964805 127.56904084 33.99829102 115.02807617 C33.61213623 113.9269751 33.22598145 112.82587402 32.828125 111.69140625 C32.4765332 110.71373291 32.12494141 109.73605957 31.76269531 108.72875977 C31 106 31 106 31 101 C13.18 101 -4.64 101 -23 101 C-23 103.31 -23 105.62 -23 108 C-23.48730469 110.50024414 -23.48730469 110.50024414 -24.171875 112.78515625 C-24.42243652 113.63883789 -24.67299805 114.49251953 -24.93115234 115.37207031 C-25.20137207 116.25991211 -25.4715918 117.14775391 -25.75 118.0625 C-26.02150879 118.98772461 -26.29301758 119.91294922 -26.57275391 120.86621094 C-27.78069573 124.97649907 -29.02050825 129.07602143 -30.2890625 133.16796875 C-32.27209383 139.70911884 -33.47195146 145.15670388 -33 152 C-29.55529653 153.2917638 -26.33079016 154.15550182 -22.6875 154.5625 C-19 155 -19 155 -18 156 C-18 158.31 -18 160.62 -18 163 C-34.83 163 -51.66 163 -69 163 C-69 160.69 -69 158.38 -69 156 C-68.26394531 155.82984375 -67.52789063 155.6596875 -66.76953125 155.484375 C-59.10248639 153.70130855 -59.10248639 153.70130855 -53 149 C-49.67377524 142.86727309 -47.25988634 136.56890779 -44.9375 130 C-44.25945115 128.10404627 -43.58107126 126.20821089 -42.90234375 124.3125 C-42.57814453 123.40314697 -42.25394531 122.49379395 -41.91992188 121.55688477 C-41.11924315 119.33143139 -40.30018718 117.1149569 -39.46484375 114.90234375 C-35.16583186 103.5087323 -31.19842826 92.01829177 -27.84643555 80.31054688 C-26.32420487 75.02168317 -24.67148134 69.78572992 -22.9375 64.5625 C-22.70409912 63.85335449 -22.47069824 63.14420898 -22.23022461 62.41357422 C-21.00190207 58.74865911 -19.66989394 55.16126547 -18.19140625 51.58984375 C-15.06315281 43.87051658 -12.59220817 35.9110353 -10 28 C-3.77455167 9.00085397 -3.77455167 9.00085397 0 0 Z " fill="#F6F4F7" transform="translate(1124,800)"/>
<path d="M0 0 C8.14509342 -0.0231771 16.29017304 -0.04094248 24.43529129 -0.05181217 C28.21745214 -0.05702924 31.99959042 -0.06410557 35.78173828 -0.07543945 C39.43216931 -0.08631008 43.08257863 -0.0922857 46.7330246 -0.09487724 C48.12526542 -0.09672395 49.51750506 -0.1003301 50.90973663 -0.10573006 C52.86071106 -0.11299576 54.81170736 -0.11340853 56.76269531 -0.11352539 C57.8730011 -0.115746 58.98330688 -0.11796661 60.1272583 -0.12025452 C62.60207865 -0.0166572 64.64343624 0.27860885 67 1 C67.04241723 3.33294775 67.04092937 5.66702567 67 8 C65.08645121 9.91354879 61.75390447 9.66168922 59.1875 10 C55.38795487 10.50398112 51.70568587 11.0276183 48 12 C45.51893381 19.73188222 44.5385668 26.76757931 44.48828125 34.8671875 C44.46108253 36.52570488 44.46108253 36.52570488 44.43333435 38.21772766 C44.37880568 41.7701236 44.34473674 45.32233765 44.3125 48.875 C44.28176863 51.31942808 44.2501903 53.76384565 44.21777344 56.20825195 C44.15725012 60.98953439 44.10599725 65.77077496 44.06298828 70.55224609 C44.02070859 75.19191281 43.95932825 79.83062019 43.87663269 84.46972656 C43.82104125 87.70883321 43.78601269 90.94812507 43.75 94.1875 C43.72848877 95.26821777 43.70697754 96.34893555 43.68481445 97.46240234 C43.63576603 108.90271548 47.43309871 118.81831016 51.6875 129.3125 C52.08388672 130.35728516 52.48027344 131.40207031 52.88867188 132.47851562 C56.22628872 140.69458964 60.07843024 144.72322818 68.08203125 148.42578125 C68.98308594 148.71839844 69.88414062 149.01101563 70.8125 149.3125 C71.72644531 149.61800781 72.64039063 149.92351562 73.58203125 150.23828125 C74.37996094 150.48964844 75.17789063 150.74101563 76 151 C76.99 151.33 77.98 151.66 79 152 C95.57245431 153.27086098 110.59497303 151.74520488 124.6171875 142.22265625 C127.52026553 139.51470314 128.94433553 136.87325619 130.6875 133.3125 C131.55955078 131.57419922 131.55955078 131.57419922 132.44921875 129.80078125 C135.55859254 122.73562704 136.30162472 115.45767308 136.38232422 107.81518555 C136.39879501 106.9455719 136.41526581 106.07595825 136.43223572 105.17999268 C136.4831141 102.33229534 136.51986743 99.48465478 136.5546875 96.63671875 C136.5836074 94.6380837 136.61275555 92.63945193 136.64212036 90.64082336 C136.70088677 86.4608826 136.75169711 82.28092809 136.79785156 78.10083008 C136.8580643 72.77144396 136.94599963 67.44291122 137.04099846 62.11404705 C137.11006367 57.98838021 137.16018852 53.86263572 137.20520401 49.73664284 C137.22961345 47.77316623 137.26069212 45.80975976 137.29885483 43.8465023 C137.57543279 29.73094688 137.57543279 29.73094688 133.8664856 16.18806458 C133 14 133 14 133 11 C131.53626953 10.94392578 131.53626953 10.94392578 130.04296875 10.88671875 C128.77066406 10.82097656 127.49835938 10.75523437 126.1875 10.6875 C124.92292969 10.62949219 123.65835938 10.57148437 122.35546875 10.51171875 C119 10 119 10 117.0625 8.65625 C115.45320998 6.14765085 115.80669972 3.89950424 116 1 C118.41033374 -0.20516687 119.9258141 -0.12686106 122.61743164 -0.12939453 C123.57504898 -0.13254669 124.53266632 -0.13569885 125.51930237 -0.13894653 C127.07402504 -0.13591019 127.07402504 -0.13591019 128.66015625 -0.1328125 C129.72036484 -0.13376923 130.78057343 -0.13472595 131.87290955 -0.13571167 C134.11652689 -0.13639295 136.3601462 -0.13454227 138.60375977 -0.13037109 C142.05163972 -0.12501686 145.49938971 -0.13032058 148.94726562 -0.13671875 C151.12239612 -0.13605806 153.29752654 -0.1347771 155.47265625 -0.1328125 C157.03041527 -0.13584885 157.03041527 -0.13584885 158.61964417 -0.13894653 C160.05134193 -0.13421829 160.05134193 -0.13421829 161.51196289 -0.12939453 C162.77865562 -0.12820114 162.77865562 -0.12820114 164.07093811 -0.12698364 C166 0 166 0 167 1 C167.04092937 3.33297433 167.04241723 5.66705225 167 8 C164.04496433 9.67023755 161.68683399 10.30036166 158.3125 10.5625 C155.35818712 10.59506307 155.35818712 10.59506307 153 12 C152.20854633 17.32515438 151.7485021 22.64339461 151.46875 28.01953125 C151.42721802 28.81688187 151.38568604 29.61423248 151.34289551 30.43574524 C150.67770434 44.54432244 150.64779252 58.68273231 150.47393799 72.80444336 C149.69470627 135.76781911 149.69470627 135.76781911 135.53515625 150.578125 C133.10922867 152.59661636 130.68053505 154.3381546 128 156 C127.35417969 156.40347656 126.70835937 156.80695313 126.04296875 157.22265625 C107.77117227 167.33946146 77.96620781 168.66638618 57.75 163.375 C43.79492633 158.97378446 31.71181077 151.77268659 24 139 C22.8125 136.125 22.8125 136.125 22 133 C21.74860543 132.05424229 21.74860543 132.05424229 21.49213219 131.08937836 C20.04505923 125.21594086 19.71748807 119.69853825 19.74462891 113.66601562 C19.74100845 112.67454025 19.737388 111.68306488 19.73365784 110.6615448 C19.72680174 108.52381811 19.72425124 106.38607405 19.72560501 104.24833679 C19.72657594 100.85932718 19.71356184 97.47062979 19.69662476 94.08166504 C19.65051735 84.45144017 19.62574435 74.82124957 19.61914062 65.19091797 C19.61411707 59.28653002 19.58982967 53.38247144 19.55381393 47.47819519 C19.54404127 45.23603801 19.54167008 42.99383539 19.54698563 40.75166321 C19.55408219 37.61208004 19.53672164 34.47347518 19.51416016 31.33398438 C19.52233261 30.41735519 19.53050507 29.50072601 19.53892517 28.55632019 C19.46083991 22.42125836 18.31767032 17.24958029 15 12 C12.67128525 10.59276099 12.67128525 10.59276099 10.0625 10.5625 C8.75345703 10.41361328 8.75345703 10.41361328 7.41796875 10.26171875 C6.22107422 10.13216797 6.22107422 10.13216797 5 10 C1.875 8.875 1.875 8.875 0 8 C0 5.36 0 2.72 0 0 Z " fill="#F5F3F6" transform="translate(782,801)"/>
<path d="M0 0 C0.91568835 27.67278388 1.12454214 55.31332537 1 83 C1.7206665 82.61666504 2.44133301 82.23333008 3.18383789 81.83837891 C6.47313025 80.09370885 9.76772184 78.35928634 13.0625 76.625 C14.19623047 76.02171875 15.32996094 75.4184375 16.49804688 74.796875 C28.2319059 68.63916473 39.67330676 65.25522138 53 69.125 C60.26424227 72.0525854 64.70450407 77.04284193 68 84 C69.64231601 88.91695172 70.24678614 93.149929 70.23950195 98.32470703 C70.24151611 99.01995483 70.24353027 99.71520264 70.24560547 100.43151855 C70.24912778 101.92813852 70.24841277 103.42477344 70.24382973 104.92139053 C70.23819853 107.29264571 70.24745497 109.66341869 70.2610321 112.03463745 C70.29801457 118.77165052 70.31667524 125.50849349 70.30541992 132.24560547 C70.29956511 136.37770544 70.31783795 140.50911899 70.35130882 144.64107895 C70.35925098 146.21109982 70.35800182 147.78119573 70.34728432 149.3512001 C70.33293527 151.54625375 70.34924284 153.73914734 70.37231445 155.93408203 C70.37294388 157.18093781 70.3735733 158.42779358 70.3742218 159.71243286 C71.1713255 163.90006983 72.72492252 165.3593937 76 168 C78.85280011 169.21222491 78.85280011 169.21222491 81.8125 169.8125 C82.78832031 170.04582031 83.76414062 170.27914062 84.76953125 170.51953125 C85.50558594 170.67808594 86.24164062 170.83664062 87 171 C87 172.98 87 174.96 87 177 C69.84 177 52.68 177 35 177 C34.67 175.02 34.34 173.04 34 171 C34.77085938 170.80664062 35.54171875 170.61328125 36.3359375 170.4140625 C37.33882812 170.15367187 38.34171875 169.89328125 39.375 169.625 C40.37273437 169.36976563 41.37046875 169.11453125 42.3984375 168.8515625 C45.12541015 168.17595681 45.12541015 168.17595681 47 166 C48.15098306 158.77722434 48.19113321 151.55936354 48.23828125 144.2578125 C48.25038887 142.45157913 48.25038887 142.45157913 48.26274109 140.6088562 C48.27651143 138.07242239 48.28726478 135.5359706 48.29516602 132.99951172 C48.30670623 130.42002893 48.32718986 127.84057039 48.35668945 125.26123047 C48.39951909 121.50992816 48.41555346 117.75932943 48.42578125 114.0078125 C48.45204338 112.29792648 48.45204338 112.29792648 48.47883606 110.55349731 C48.45919063 103.22544687 47.6221582 96.49981922 44 90 C38.37323831 85.25554694 31.06760042 85.30419636 24 85.4609375 C18.3254392 86.00549427 13.35843141 88.30801588 8.2421875 90.6875 C5.08791978 91.96440838 3.31981394 92.11853958 0 92 C0.12016596 98.68139154 0.24484935 105.36268909 0.37231445 112.04394531 C0.4149607 114.30499476 0.45666534 116.56606221 0.49731445 118.82714844 C0.71762759 131.04500772 0.99770358 143.25783078 1.47265625 155.46875 C1.50975204 156.48578003 1.54684784 157.50281006 1.58506775 158.55065918 C1.62410721 159.48720337 1.66314667 160.42374756 1.70336914 161.38867188 C1.73644669 162.2097644 1.76952423 163.03085693 1.80360413 163.87683105 C1.93616667 166.18767017 1.93616667 166.18767017 3 169 C5.00471389 169.77112101 5.00471389 169.77112101 7.375 170.125 C10.03732753 170.61930837 12.4199702 171.13999007 15 172 C15 173.65 15 175.3 15 177 C-2.82 177 -20.64 177 -39 177 C-39 175.02 -39 173.04 -39 171 C-38.18015625 170.85304688 -37.3603125 170.70609375 -36.515625 170.5546875 C-34.89914062 170.21824219 -34.89914062 170.21824219 -33.25 169.875 C-31.64898438 169.56175781 -31.64898438 169.56175781 -30.015625 169.2421875 C-26.94332254 167.97665358 -25.56475017 166.91842119 -23.81696701 164.11137581 C-21.93088096 159.23696054 -22.46861904 153.78585958 -22.51416016 148.63842773 C-22.51201238 147.27621089 -22.50813185 145.91399585 -22.50265503 144.55178833 C-22.49298654 140.86372728 -22.50823274 137.17615261 -22.52856112 133.48815036 C-22.54616874 129.62410994 -22.54260633 125.76008371 -22.5418396 121.89601135 C-22.54371075 115.40886326 -22.56105034 108.92190264 -22.58837891 102.43481445 C-22.619841 94.93892148 -22.63037452 87.44323363 -22.6289078 79.94727939 C-22.62755602 71.9594658 -22.64144181 63.97173109 -22.65980101 55.98394132 C-22.66405967 53.68512182 -22.66548281 51.38631507 -22.66627884 49.08749199 C-22.66829068 45.47344482 -22.68052432 41.85956926 -22.70061111 38.24557877 C-22.70922142 36.28926095 -22.70811969 34.33290792 -22.70672607 32.37657166 C-22.71525604 31.20880188 -22.72378601 30.0410321 -22.73257446 28.83787537 C-22.73592615 27.82524344 -22.73927784 26.81261152 -22.74273109 25.76929379 C-23.01449246 22.84400029 -23.77642396 20.65690509 -25 18 C-25.85464844 17.93941406 -26.70929688 17.87882812 -27.58984375 17.81640625 C-28.69457031 17.73261719 -29.79929687 17.64882813 -30.9375 17.5625 C-32.03964844 17.48128906 -33.14179687 17.40007812 -34.27734375 17.31640625 C-37 17 -37 17 -38 16 C-38.04092937 13.66702567 -38.04241723 11.33294775 -38 9 C-37.17435547 8.77957031 -37.17435547 8.77957031 -36.33203125 8.5546875 C-31.47305106 7.24389284 -26.62946566 5.89662927 -21.8046875 4.46484375 C-20.88196045 4.19365723 -19.9592334 3.9224707 -19.00854492 3.64306641 C-17.15000391 3.09587848 -15.29332549 2.54231777 -13.4387207 1.98193359 C-12.12907349 1.59835693 -12.12907349 1.59835693 -10.79296875 1.20703125 C-10.0146167 0.9747583 -9.23626465 0.74248535 -8.43432617 0.50317383 C-5.57757552 -0.0873149 -2.90915636 -0.08127017 0 0 Z " fill="#F6F5F8" transform="translate(1164,329)"/>
<path d="M0 0 C1.41345703 0.34224609 1.41345703 0.34224609 2.85546875 0.69140625 C22.7035473 5.7035473 22.7035473 5.7035473 27 10 C27.50244141 12.34741211 27.50244141 12.34741211 27.8515625 15.27734375 C27.98046875 16.34919922 28.109375 17.42105469 28.2421875 18.52539062 C28.36851562 19.65138672 28.49484375 20.77738281 28.625 21.9375 C28.82609375 23.57428711 28.82609375 23.57428711 29.03125 25.24414062 C29.84170353 32.19502017 30.17368497 39.00435555 30 46 C27.03 46 24.06 46 21 46 C20.50371094 44.9378125 20.00742187 43.875625 19.49609375 42.78125 C15.79475212 35.01779609 12.33112745 27.98017803 6 22 C5.40832031 21.38898437 4.81664062 20.77796875 4.20703125 20.1484375 C-1.12471542 14.98159021 -7.03084339 12.38835889 -14 10 C-14.70511719 9.7525 -15.41023437 9.505 -16.13671875 9.25 C-29.50173335 5.46893497 -47.14776964 6.9051505 -59.1875 13.625 C-74.93317193 23.97726807 -86.15810064 39.16368921 -90.51171875 57.56640625 C-95.63176849 83.08473418 -89.00451111 109.81259943 -76 132 C-73.54509358 135.55146421 -70.88052586 138.78818559 -68 142 C-67.43152344 142.69609375 -66.86304688 143.3921875 -66.27734375 144.109375 C-59.92512263 151.31321258 -49.42902096 157.06166581 -40 159 C-21.35921879 159.84108457 -2.93759891 157.30858151 12 145 C17.03314453 139.3482567 20.18888525 132.97156458 23 126 C25.97 126.33 28.94 126.66 32 127 C32.71228122 148.96200428 32.71228122 148.96200428 27 157 C13.31428139 170.71869624 -9.21612273 172.20723542 -27.4375 172.25 C-55.11536035 172.24104218 -76.32773118 164.64666396 -97 146 C-98.05380859 145.071875 -98.05380859 145.071875 -99.12890625 144.125 C-112.69835845 131.49660601 -120.26881356 111.94124708 -121.15966797 93.73730469 C-121.28046933 90.05311376 -121.34254221 86.37350331 -121.375 82.6875 C-121.38909912 81.50712158 -121.40319824 80.32674316 -121.41772461 79.1105957 C-121.29264067 56.58123627 -109.91202821 37.50675464 -94.875 21.4375 C-70.56356192 -2.2055824 -32.00918037 -8.65005248 0 0 Z " fill="#F7F5F8" transform="translate(905,569)"/>
<path d="M0 0 C2.87270247 0.00096667 5.74267516 -0.04064649 8.61499023 -0.08496094 C17.93362001 -0.1466293 26.69253403 0.3783575 35.74194336 2.71972656 C36.49455948 2.91393188 37.2471756 3.10813721 38.02259827 3.30822754 C43.39289821 4.86433452 47.74300329 7.35521382 52.33959961 10.50097656 C53.32959961 11.16097656 54.31959961 11.82097656 55.33959961 12.50097656 C58.29137122 24.45012686 57.5524673 37.29656252 57.33959961 49.50097656 C54.36959961 49.50097656 51.39959961 49.50097656 48.33959961 49.50097656 C48.13206055 48.76234375 47.92452148 48.02371094 47.71069336 47.26269531 C44.24212716 35.84109867 38.48305101 24.53561037 28.02709961 18.07128906 C13.99819513 10.66227389 -4.95645452 7.27285102 -20.53149414 11.69238281 C-30.1366617 15.34058407 -37.45779382 20.18199035 -44.66040039 27.50097656 C-45.2237207 28.06558594 -45.78704102 28.63019531 -46.36743164 29.21191406 C-61.30085673 45.36680664 -64.49704932 65.48392816 -63.82202148 86.54150391 C-62.52848607 110.22766144 -51.41914205 133.62186408 -34.48852539 150.02050781 C-30.51190408 153.50829031 -26.43570068 156.23757825 -21.66040039 158.50097656 C-20.95012695 158.84153076 -20.23985352 159.18208496 -19.50805664 159.53295898 C-13.13366511 162.36637099 -7.72064187 163.10764364 -0.78540039 162.93847656 C0.17986572 162.92381348 1.14513184 162.90915039 2.13964844 162.89404297 C17.1031857 162.49837554 30.11950751 157.65502666 41.33959961 147.50097656 C44.03087098 144.13688735 45.68345324 140.75000908 47.33959961 136.81347656 C49.90595913 130.91482853 49.90595913 130.91482853 53.33959961 129.50097656 C55.34700859 129.78631899 57.34892241 130.11585918 59.33959961 130.50097656 C59.28767927 134.7311412 59.19258714 138.95927129 59.08959961 143.18847656 C59.07541992 144.38666016 59.06124023 145.58484375 59.04663086 146.81933594 C59.0144043 147.97626953 58.98217773 149.13320313 58.94897461 150.32519531 C58.92802734 151.38826904 58.90708008 152.45134277 58.88549805 153.54663086 C58.21251848 157.18872647 56.88301513 158.85196013 54.33959961 161.50097656 C37.70609819 172.24107598 17.04515837 175.9057781 -2.41040039 175.81347656 C-3.63887695 175.80856201 -4.86735352 175.80364746 -6.13305664 175.79858398 C-28.52932562 175.51035323 -46.3304883 168.73738887 -63.66040039 154.50097656 C-64.3165332 153.99179687 -64.97266602 153.48261719 -65.64868164 152.95800781 C-83.31893318 138.61642089 -91.1342891 117.54096339 -93.66040039 95.50097656 C-95.68205847 74.09088682 -88.65454974 51.49060664 -75.22338867 34.70507812 C-71.88685272 30.78396801 -68.32481322 27.11417467 -64.66040039 23.50097656 C-63.91016602 22.74042969 -63.15993164 21.97988281 -62.38696289 21.19628906 C-53.49253343 12.69863712 -42.32469171 7.11909022 -30.66040039 3.50097656 C-29.47643677 3.1032605 -29.47643677 3.1032605 -28.26855469 2.69750977 C-18.93893413 -0.07198832 -9.64707704 -0.0227967 0 0 Z " fill="#F7F6F8" transform="translate(877.660400390625,334.4990234375)"/>
<path d="M0 0 C0.33 26.07 0.66 52.14 1 79 C8.26 75.04 15.52 71.08 23 67 C33.45822769 63.61645575 46.04432105 60.18936971 56.9375 64.0625 C62.53177937 67.60173797 67.02475232 72.04569802 70 78 C70.31003274 80.65499608 70.46463619 83.08544998 70.4765625 85.74023438 C70.49168884 86.50346512 70.50681519 87.26669586 70.5223999 88.05305481 C70.55329393 89.70402983 70.57755385 91.35513959 70.59588623 93.00630188 C70.62530969 95.62127362 70.67284556 98.23536663 70.72509766 100.84997559 C70.85109177 107.34192727 70.94586054 113.83426798 71.04174805 120.32672119 C71.12403438 125.81743146 71.21809933 131.30769524 71.32781982 136.79792786 C71.37436085 139.37091506 71.40355896 141.94372745 71.43212891 144.51696777 C71.46171257 146.09791657 71.49210561 147.67885051 71.5234375 149.25976562 C71.52824127 150.32908073 71.52824127 150.32908073 71.53314209 151.41999817 C71.64125929 155.74268766 72.28565364 158.591487 75 162 C77.87059722 162.95953432 77.87059722 162.95953432 81.0625 163.1875 C86.82288828 163.82288828 86.82288828 163.82288828 89 166 C89 167.98 89 169.96 89 172 C71.18 172 53.36 172 35 172 C35 170.02 35 168.04 35 166 C35.75925781 165.85304688 36.51851562 165.70609375 37.30078125 165.5546875 C38.79158203 165.21824219 38.79158203 165.21824219 40.3125 164.875 C41.79169922 164.56175781 41.79169922 164.56175781 43.30078125 164.2421875 C46.99414661 162.54249114 47.48324871 160.71688042 49 157 C49.44089335 153.90485082 49.44089335 153.90485082 49.37231445 150.64672852 C49.37854324 149.40846817 49.38477203 148.17020782 49.39118958 146.89442444 C49.38249963 145.55591426 49.37318144 144.21740803 49.36328125 142.87890625 C49.36276187 141.49177552 49.36328259 140.10464405 49.36479187 138.71751404 C49.3647024 135.81669051 49.35432718 132.91614637 49.33618164 130.01538086 C49.31351654 126.31233007 49.31294931 122.60968769 49.31969929 118.90658665 C49.32305449 116.04368005 49.31637977 113.18086514 49.30657005 110.317976 C49.30274286 108.95334288 49.30155945 107.58869952 49.3031559 106.22406197 C49.33731421 96.42086863 49.33731421 96.42086863 47 87 C46.67 86.01 46.34 85.02 46 84 C43.96989555 83.01179035 43.96989555 83.01179035 41.5625 82.375 C37.06374502 81.03187251 37.06374502 81.03187251 35 80 C24.20063174 78.0988408 15.37833406 82.74992908 5.89428711 87.265625 C4 88 4 88 1 88 C1.10809945 95.65039938 1.22084646 103.30071872 1.33933926 110.95096397 C1.39423285 114.50422759 1.4475944 118.05749977 1.49731445 121.61083984 C1.55469689 125.70678579 1.61899511 129.80259896 1.68359375 133.8984375 C1.70030624 135.1592514 1.71701874 136.42006531 1.73423767 137.71908569 C1.87509176 146.19700107 2.06482351 154.70638646 4 163 C4.78246094 163.13277344 5.56492187 163.26554688 6.37109375 163.40234375 C7.88896484 163.66724609 7.88896484 163.66724609 9.4375 163.9375 C10.44683594 164.11152344 11.45617187 164.28554688 12.49609375 164.46484375 C15 165 15 165 16 166 C16 167.98 16 169.96 16 172 C-1.49 172 -18.98 172 -37 172 C-37 170.02 -37 168.04 -37 166 C-36.32453125 165.80664062 -35.6490625 165.61328125 -34.953125 165.4140625 C-34.06109375 165.15367187 -33.1690625 164.89328125 -32.25 164.625 C-31.36828125 164.36976563 -30.4865625 164.11453125 -29.578125 163.8515625 C-27.21904448 163.07235106 -25.13817703 162.26171708 -23 161 C-21.693799 158.38759801 -21.86816138 156.46732213 -21.85955811 153.54066467 C-21.85384796 152.38109756 -21.84813782 151.22153046 -21.84225464 150.02682495 C-21.84113678 148.74832672 -21.84001892 147.46982849 -21.83886719 146.15258789 C-21.8342398 144.79757044 -21.82921525 143.44255429 -21.82382202 142.08753967 C-21.81068989 138.40162431 -21.80425169 134.71572717 -21.79981136 131.02979207 C-21.79688245 128.72850692 -21.79277803 126.42722677 -21.78830719 124.12594414 C-21.77463122 116.93008988 -21.76496458 109.73424704 -21.7611053 102.53838068 C-21.75662165 94.2234547 -21.73906007 85.90869287 -21.7101047 77.59381682 C-21.68851441 71.17169863 -21.67840247 64.74962673 -21.67706418 58.32747263 C-21.6760144 54.48928329 -21.67006998 50.65124823 -21.65224457 46.813097 C-21.63580915 43.20402749 -21.63358606 39.59522899 -21.64238358 35.98613548 C-21.64352545 34.02697156 -21.62977381 32.06781682 -21.6156311 30.10870361 C-21.62120026 28.94631668 -21.62676941 27.78392975 -21.63250732 26.58631897 C-21.63030748 25.06787431 -21.63030748 25.06787431 -21.6280632 23.51875401 C-21.80005353 20.9709328 -21.80005353 20.9709328 -23.34059525 19.21018124 C-25.78489351 17.42758788 -28.25390607 16.97492444 -31.1875 16.3125 C-32.27417969 16.06113281 -33.36085938 15.80976562 -34.48046875 15.55078125 C-35.31191406 15.36902344 -36.14335938 15.18726563 -37 15 C-37 12.69 -37 10.38 -37 8 C-33.04244647 7.03842757 -29.08381991 6.08134414 -25.125 5.125 C-24.01640625 4.85558594 -22.9078125 4.58617187 -21.765625 4.30859375 C-3.90072409 0 -3.90072409 0 0 0 Z " fill="#F8F7F9" transform="translate(981,564)"/>
<path d="M0 0 C1.15927528 3.47782583 1.11313066 6.18803257 1.09765625 9.85546875 C1.0962413 10.51710526 1.09482635 11.17874176 1.09336853 11.86042786 C1.08777996 13.96949828 1.07522965 16.07846177 1.0625 18.1875 C1.05748352 19.61913909 1.05292087 21.05077985 1.04882812 22.48242188 C1.0378143 25.98831588 1.02055755 29.4941475 1 33 C-1.64 33 -4.28 33 -7 33 C-7.268125 32.01 -7.53625 31.02 -7.8125 30 C-10.45868134 20.85527884 -13.2932607 13.98741013 -21.859375 8.89453125 C-29.42739377 5.32818612 -39.34247249 4.52078002 -47.3125 7.1875 C-53.30915782 9.76956192 -56.67844364 14.54315741 -60 20 C-62.50011379 27.50034137 -61.59518233 35.60097312 -58.30078125 42.69921875 C-51.12019653 55.40001275 -37.13457328 61.43542145 -24.75 68.0625 C-17.22022832 72.10527102 -10.24714362 76.09085482 -4 82 C-3.1440625 82.76699219 -2.288125 83.53398438 -1.40625 84.32421875 C7.60898399 92.76937177 12.96640679 101.47540704 13.375 113.9375 C13.22080416 127.56841226 7.33821157 137.76891561 -2.140625 147.109375 C-7.17988125 151.53157946 -12.68003536 154.55915269 -18.6875 157.4375 C-19.75665649 157.95111084 -19.75665649 157.95111084 -20.84741211 158.47509766 C-38.3229733 166.44455442 -62.31041516 162.65861664 -80 157 C-83.881758 155.17948559 -85.37376665 153.90757227 -87 150 C-87.50244141 147.4855957 -87.50244141 147.4855957 -87.8515625 144.67578125 C-87.98046875 143.64646484 -88.109375 142.61714844 -88.2421875 141.55664062 C-88.36851562 140.48607422 -88.49484375 139.41550781 -88.625 138.3125 C-88.7590625 137.26126953 -88.893125 136.21003906 -89.03125 135.12695312 C-89.77428261 129.03484389 -90.14135284 123.13599809 -90 117 C-87.03 117 -84.06 117 -81 117 C-80.95746094 117.680625 -80.91492188 118.36125 -80.87109375 119.0625 C-79.67903003 127.13846325 -76.33351876 131.60478368 -70.8125 137.4375 C-70.17691162 138.11103516 -69.54132324 138.78457031 -68.88647461 139.47851562 C-61.31695527 147.14860431 -53.48568585 152.21986482 -42.4375 152.4375 C-34.10591023 152.28777799 -26.2872404 150.53937981 -19.73828125 145.1328125 C-13.84636833 138.78387489 -11.44207565 132.47745338 -11.71484375 123.84375 C-12.44439366 116.56823852 -14.3336513 109.94418374 -20 105 C-26.62552322 99.91179673 -33.61230489 95.92401645 -41.0625 92.1875 C-48.29702609 88.48015634 -55.47620177 84.71990683 -62.5 80.625 C-63.16265869 80.24496826 -63.82531738 79.86493652 -64.50805664 79.47338867 C-72.16373458 74.94890763 -77.69165508 70.38669799 -81 62 C-81.40182495 61.00468262 -81.40182495 61.00468262 -81.81176758 59.98925781 C-83.97062009 54.10732557 -84.50895487 48.80289219 -84.4375 42.5625 C-84.42992676 41.63598633 -84.42235352 40.70947266 -84.41455078 39.75488281 C-84.25441502 33.13204164 -83.51103556 27.73541834 -80 22 C-79.56429687 21.23945312 -79.12859375 20.47890625 -78.6796875 19.6953125 C-73.43355897 11.1811039 -67.17569846 5.31485355 -58.4375 0.5625 C-57.81238525 0.22017334 -57.18727051 -0.12215332 -56.54321289 -0.47485352 C-40.11071816 -8.94674623 -17.12329891 -3.53610347 0 0 Z " fill="#F7F6F8" transform="translate(1044,803)"/>
<path d="M0 0 C7.80980619 5.73104077 12.67268884 12.13452685 14.70285034 21.76202393 C15.55894213 27.57891588 15.45569879 33.45599277 15.4921875 39.32421875 C15.5083937 40.73907586 15.52557687 42.15392207 15.54368591 43.5687561 C15.58905047 47.26640794 15.62403047 50.96407498 15.65588379 54.66186523 C15.70807684 60.60034567 15.77297258 66.53866696 15.84409904 72.47694778 C15.86687604 74.54592692 15.88317385 76.61488568 15.89881897 78.68392944 C15.91230881 79.93598175 15.92579865 81.18803406 15.93969727 82.47802734 C15.94920914 83.58117279 15.95872101 84.68431824 15.96852112 85.82089233 C15.99711024 88.64484829 15.99711024 88.64484829 17.11328125 91.55078125 C22.39328125 91.55078125 27.67328125 91.55078125 33.11328125 91.55078125 C32.02706076 96.98188369 30.75222101 100.5026489 26.28125 103.97265625 C20.68732974 107.60923921 15.04642945 110.25171162 8.203125 110.0546875 C3.83745836 109.00203143 0.87940259 105.95279256 -1.88671875 102.55078125 C-3.28012934 99.8711455 -4.06397808 97.4817949 -4.88671875 94.55078125 C-7.98722781 95.95884241 -10.35156795 97.6734859 -12.94921875 99.86328125 C-22.87156998 107.74521531 -33.33956448 110.73295424 -45.88671875 109.55078125 C-52.72995883 107.41111589 -60.57065133 102.87878602 -64.046875 96.3828125 C-66.04676761 89.63898859 -66.14778245 80.76926338 -64.1171875 73.9765625 C-62.90312071 71.86159809 -61.58957255 70.29649864 -59.88671875 68.55078125 C-58.93345703 67.46796875 -58.93345703 67.46796875 -57.9609375 66.36328125 C-50.58181135 58.81847523 -41.51917202 55.34521877 -31.88671875 51.55078125 C-30.95569336 51.17969238 -30.02466797 50.80860352 -29.06542969 50.42626953 C-24.43716178 48.58974171 -19.79857021 46.77951493 -15.140625 45.01953125 C-14.39111572 44.73529297 -13.64160645 44.45105469 -12.86938477 44.15820312 C-10.88671875 43.55078125 -10.88671875 43.55078125 -7.88671875 43.55078125 C-7.97434875 40.69525181 -8.08130882 37.84259136 -8.19921875 34.98828125 C-8.23305664 33.78848633 -8.23305664 33.78848633 -8.26757812 32.56445312 C-8.56570457 25.92436415 -9.84899499 21.11249112 -14.07421875 15.80078125 C-18.55681413 12.21470495 -22.82212615 10.87676956 -28.44921875 9.98828125 C-33.35954823 10.79178971 -35.92801029 12.70634478 -38.88671875 16.55078125 C-41.91055743 21.70138186 -44.39473168 27.12918988 -46.88671875 32.55078125 C-47.21671875 33.21078125 -47.54671875 33.87078125 -47.88671875 34.55078125 C-50.171875 34.96484375 -50.171875 34.96484375 -52.94921875 35.17578125 C-53.86832031 35.25054688 -54.78742188 35.3253125 -55.734375 35.40234375 C-56.44464844 35.45132813 -57.15492187 35.5003125 -57.88671875 35.55078125 C-62.63962573 24.46066497 -62.63962573 24.46066497 -60.88671875 19.55078125 C-48.20553144 2.66725117 -20.28236089 -12.10124053 0 0 Z " fill="#F5F4F7" transform="translate(1140.88671875,629.44921875)"/>
<path d="M0 0 C0.75684082 -0.02239746 1.51368164 -0.04479492 2.29345703 -0.06787109 C8.96238608 -0.04002894 12.87604816 2.06294014 18.04296875 6.33203125 C18.98076172 7.28142578 18.98076172 7.28142578 19.9375 8.25 C20.57042969 8.87519531 21.20335937 9.50039063 21.85546875 10.14453125 C27.94966321 17.52039135 28.30972375 23.42601855 28.2358551 32.7727375 C28.21847715 35.03949618 28.22616107 37.30499262 28.2401123 39.57176208 C28.26535974 44.38126249 28.25996186 49.19046036 28.25 54 C28.23845087 59.58031469 28.23969026 65.16001059 28.27406311 70.74024773 C28.28113039 72.96623217 28.26451853 75.19122355 28.24694824 77.41712952 C28.25265821 78.78924078 28.25947653 80.16134804 28.26757812 81.53344727 C28.26439575 82.72478775 28.26121338 83.91612823 28.25793457 85.14356995 C28.85996452 89.17361235 30.11551147 91.35135843 32.75 94.4375 C37.35224131 94.94886015 41.25180368 94.56204908 45.75 93.4375 C46.24716158 96.58618998 46.51338081 98.41048302 45.75 101.4375 C40.42714951 107.58588518 32.1546306 111.90590665 24.125 112.875 C18.19134052 112.10582192 13.56125787 110.12827892 9.75 105.4375 C8.5922494 101.96424819 8.68133348 99.07682552 8.75 95.4375 C8.09 95.4375 7.43 95.4375 6.75 95.4375 C6.67394531 96.02660156 6.59789062 96.61570312 6.51953125 97.22265625 C4.91919131 101.82871081 -0.22842642 104.07217975 -4.25 106.4375 C-13.72026909 111.02026636 -22.64260118 113.79810035 -33.25 112.4375 C-40.38666071 109.73255587 -45.54120682 105.06405005 -49.25 98.4375 C-51.81242979 92.14789961 -52.45690853 85.43193837 -50.48046875 78.890625 C-45.95419095 68.59054408 -37.39020934 62.29555375 -27.13964844 58.29248047 C-26.08293945 57.90721191 -25.02623047 57.52194336 -23.9375 57.125 C-22.28862793 56.49682373 -22.28862793 56.49682373 -20.60644531 55.85595703 C-0.19032607 48.16288278 -0.19032607 48.16288278 6.75 48.4375 C6.66217358 45.60282658 6.55519098 42.77096584 6.4375 39.9375 C6.41494141 39.14601563 6.39238281 38.35453125 6.36914062 37.5390625 C6.08739781 31.28949451 5.29628224 25.31124204 0.98828125 20.44921875 C-4.46473569 16.6995783 -9.59644773 13.4375 -16.375 13.4375 C-22.83468199 15.68434591 -25.827235 19.89107681 -28.73242188 25.7734375 C-29.08884766 26.52882813 -29.44527344 27.28421875 -29.8125 28.0625 C-34.29589397 37.55863321 -34.29589397 37.55863321 -39.25 39.4375 C-42.25 38.4375 -42.25 38.4375 -43.41796875 36.80078125 C-47.22873777 29.13544128 -47.22873777 29.13544128 -46.25 24.4375 C-39.57303747 12.57005199 -27.72889216 5.70571493 -15.125 1.5625 C-10.10469972 0.34035693 -5.14476657 0.09498352 0 0 Z " fill="#F7F6F8" transform="translate(1002.25,395.5625)"/>
<path d="M0 0 C6.56253326 4.6309197 11.59731075 10.23709386 15.0703125 17.4609375 C15.42867187 18.15316406 15.78703125 18.84539063 16.15625 19.55859375 C17.48009811 23.76209436 17.32049783 27.77036211 17.2578125 32.1484375 C17.2568457 33.4487793 17.2568457 33.4487793 17.25585938 34.77539062 C17.21100533 41.17955184 17.21100533 41.17955184 16.0703125 43.4609375 C-5.7096875 43.4609375 -27.4896875 43.4609375 -49.9296875 43.4609375 C-47.38086865 65.70901456 -47.38086865 65.70901456 -35.15234375 83.921875 C-26.86197858 89.60200638 -16.76836214 90.77122828 -6.9296875 89.4609375 C0.01476173 87.0168959 5.62299555 83.15658542 11.3125 78.5859375 C13.90694218 76.92549451 16.0913965 77.0141001 19.0703125 77.4609375 C18.46866288 85.28238262 14.59628541 91.34395232 9.0078125 96.6484375 C3.88241954 100.94964666 -1.82962175 103.785769 -7.9296875 106.4609375 C-8.72890625 106.82445312 -9.528125 107.18796875 -10.3515625 107.5625 C-21.93622944 111.5995809 -35.94381343 110.69157136 -46.9296875 105.4609375 C-59.092374 98.55826341 -66.44676742 88.88706219 -70.53173828 75.48583984 C-72.18932259 68.9981696 -72.22757924 62.62587146 -72.1796875 55.9609375 C-72.18742187 54.88457031 -72.19515625 53.80820312 -72.203125 52.69921875 C-72.18002592 43.21704669 -70.95277412 35.36656436 -66.3671875 27.0234375 C-66.01640137 26.38019531 -65.66561523 25.73695313 -65.30419922 25.07421875 C-57.98998799 12.14587367 -47.18528675 3.0191286 -33.05078125 -1.65625 C-23.14642479 -4.12183936 -9.27870689 -4.68923896 0 0 Z " fill="#F6F4F7" transform="translate(1531.9296875,629.5390625)"/>
<path d="M0 0 C0.71220703 -0.01224609 1.42441406 -0.02449219 2.15820312 -0.03710938 C10.683729 -0.06076948 14.65610875 2.98863035 20.69140625 8.65625 C32.64984347 20.78311591 35.65059754 34.81367779 35.8125 51.375 C35.69421915 64.36726659 33.75902895 76.56939426 24.1875 86.1875 C17.50275456 91.95327822 11.37264821 93.79058693 2.5390625 93.62109375 C-5.83784046 92.53736854 -11.81983374 86.97153042 -17.0625 80.671875 C-27.91312573 65.26786169 -29.35449079 45.41223592 -27.8125 27.1875 C-26.76459911 22.68875308 -25.25686039 19.09204409 -22.8125 15.1875 C-22.10867188 14.06021484 -22.10867188 14.06021484 -21.390625 12.91015625 C-15.65443969 4.6296952 -10.12798295 0.00901868 0 0 Z " fill="#261259" transform="translate(1305.8125,405.8125)"/>
<path d="M0 0 C0.00423194 0.61526393 0.00846388 1.23052786 0.01282406 1.86443615 C0.11741126 17.03233319 0.22620397 32.20019423 0.33933926 47.36802959 C0.39396166 54.70391802 0.44727797 62.03981117 0.49731445 69.37573242 C0.71856285 107.70090317 0.71856285 107.70090317 1.35585213 146.02039528 C1.39155507 147.58130166 1.42430917 149.14227877 1.45385551 150.70331383 C1.49454208 152.77241368 1.54776503 154.84074558 1.60571289 156.90942383 C1.63355362 158.02811356 1.66139435 159.14680328 1.69007874 160.2993927 C1.81720249 163.22004196 1.81720249 163.22004196 4 166 C7.10176346 167.0241328 7.10176346 167.0241328 10.625 167.6875 C11.81351563 167.93886719 13.00203125 168.19023437 14.2265625 168.44921875 C15.59941406 168.72185547 15.59941406 168.72185547 17 169 C17 171.31 17 173.62 17 176 C-1.48 176 -19.96 176 -39 176 C-39 173.69 -39 171.38 -39 169 C-35.03915094 167.21122946 -31.13806464 166.3501047 -26.890625 165.5625 C-26.26671875 165.376875 -25.6428125 165.19125 -25 165 C-23.67691988 162.35383976 -23.86500922 160.36007299 -23.85282898 157.39553833 C-23.84567368 156.20375977 -23.83851837 155.0119812 -23.83114624 153.78408813 C-23.82845734 152.469758 -23.82576843 151.15542786 -23.82299805 149.80126953 C-23.81673426 148.40846588 -23.81008754 147.0156639 -23.80308533 145.62286377 C-23.78566963 141.8335841 -23.77512236 138.04431705 -23.7668798 134.25500727 C-23.7617316 131.88872082 -23.75565584 129.52243831 -23.74936867 127.15615463 C-23.73031632 119.75580388 -23.71608441 112.35546312 -23.7077567 104.95509255 C-23.69797839 96.4063793 -23.67164378 87.85792457 -23.63125581 79.30930245 C-23.60112389 72.70543034 -23.58629068 66.10163248 -23.58297569 59.49769294 C-23.58062214 55.55154895 -23.57162245 51.60568114 -23.54651451 47.65961075 C-23.52327911 43.94788844 -23.5189819 40.23662504 -23.52927589 36.52484894 C-23.53000938 34.51218243 -23.51088697 32.49953946 -23.49121094 30.48696899 C-23.49815475 29.28955078 -23.50509857 28.09213257 -23.51225281 26.85842896 C-23.50986445 25.81755693 -23.5074761 24.77668491 -23.50501537 23.70427132 C-24.12981939 20.29075203 -25.31209548 19.1264642 -28 17 C-30.56156672 16.10438884 -30.56156672 16.10438884 -33.25 15.75 C-34.14203125 15.60046875 -35.0340625 15.4509375 -35.953125 15.296875 C-36.62859375 15.19890625 -37.3040625 15.1009375 -38 15 C-38.33 12.69 -38.66 10.38 -39 8 C-34.33352179 6.7650429 -29.66612371 5.53395925 -24.99609375 4.3125 C-22.10843162 3.55707326 -19.22665269 2.78825999 -16.34765625 2 C-15.34605469 1.731875 -14.34445312 1.46375 -13.3125 1.1875 C-12.46300781 0.95417969 -11.61351562 0.72085937 -10.73828125 0.48046875 C-7.11712612 -0.15491225 -3.67741624 -0.02884156 0 0 Z " fill="#F1EFF3" transform="translate(1408,330)"/>
<path d="M0 0 C0.88107422 -0.00322266 1.76214844 -0.00644531 2.66992188 -0.00976562 C14.34976068 0.08505225 24.58181345 3.11134073 33.6875 10.75 C35.4375 13.3125 35.4375 13.3125 35.5 16.625 C33.3532797 24.07538221 30.74641201 28.72420036 24.4375 33.3125 C16.66788207 30.72262736 11.8149862 25.49488951 6.9375 19.0625 C2.75170341 14.45812375 -1.80799651 12.1360088 -8.0625 11.8125 C-14.25844764 12.12229738 -18.74267775 14.69947573 -23.3125 18.75 C-34.29746187 31.26065102 -35.73446646 43.88272656 -35.1875 60.10546875 C-34.46673392 70.23742409 -30.24374373 77.72076048 -23.5625 85.3125 C-14.15103354 92.04491686 -3.99409472 93.57609049 7.3046875 91.8828125 C15.6850224 89.95984613 22.9941796 85.7174732 28.3125 78.875 C29.364375 77.6065625 29.364375 77.6065625 30.4375 76.3125 C31.7575 76.3125 33.0775 76.3125 34.4375 76.3125 C35.5931876 79.44936634 35.7805704 81.53862747 34.4140625 84.62109375 C32.85415045 87.26634143 31.19240529 89.79244077 29.4375 92.3125 C28.89480469 93.10398437 28.35210938 93.89546875 27.79296875 94.7109375 C20.78686842 104.32586676 12.07661148 110.46597817 0.4375 113.3125 C-14.06675935 114.81146381 -28.35916425 112.20817441 -40.1953125 103.33984375 C-50.83270284 94.33775372 -57.31795752 81.95911379 -58.80517578 68.04150391 C-59.11656968 62.77682646 -58.9307612 57.56893095 -58.5625 52.3125 C-58.4903125 51.14589844 -58.418125 49.97929687 -58.34375 48.77734375 C-56.81410166 34.47165534 -49.16950161 22.32459396 -38.1171875 13.3203125 C-26.50156844 4.83617695 -14.47361751 -0.26586366 0 0 Z " fill="#F6F4F7" transform="translate(1549.5625,395.6875)"/>
<path d="M0 0 C1.18787109 -0.02449219 2.37574219 -0.04898438 3.59960938 -0.07421875 C10.07001055 -0.09599239 14.30560023 -0.07238513 19.1875 4.375 C20.1875 5.375 20.1875 5.375 20.30102539 7.69165039 C20.29317017 9.19199829 20.29317017 9.19199829 20.28515625 10.72265625 C20.28032227 12.34204102 20.28032227 12.34204102 20.27539062 13.99414062 C20.26282227 15.69860352 20.26282227 15.69860352 20.25 17.4375 C20.24548828 18.57767578 20.24097656 19.71785156 20.23632812 20.89257812 C20.22449747 23.72010351 20.2080141 26.5475264 20.1875 29.375 C17.8775 29.375 15.5675 29.375 13.1875 29.375 C12.81238281 28.55515625 12.43726563 27.7353125 12.05078125 26.890625 C11.53902344 25.81296875 11.02726562 24.7353125 10.5 23.625 C10.00113281 22.55765625 9.50226563 21.4903125 8.98828125 20.390625 C6.45620574 16.15035972 3.2364389 14.0742926 -0.8125 11.375 C-7.48420119 10.52497585 -13.32730257 10.93983175 -19.2890625 14.109375 C-22.34300228 16.6464942 -22.79809251 19.2669438 -23.3125 23.125 C-23.14317994 28.48348203 -20.44432157 31.66042 -16.8125 35.375 C-10.99981227 39.87414698 -4.63910896 42.99631468 2 46.0625 C10.83042865 50.296592 17.59625489 55.09789341 24.1875 62.375 C24.77660156 62.97441406 25.36570312 63.57382812 25.97265625 64.19140625 C27.80704559 67.48858838 27.63265272 70.76415861 27.5625 74.4375 C27.55234863 75.19538818 27.54219727 75.95327637 27.53173828 76.73413086 C27.26114602 86.60235807 25.41043362 95.23040623 18.1875 102.375 C7.65800253 110.81394151 -2.72037024 112.55258172 -15.8125 112.5625 C-16.66328125 112.57474609 -17.5140625 112.58699219 -18.390625 112.59960938 C-25.61532798 112.61623062 -31.98398223 111.31542606 -38.75 108.6875 C-39.50152344 108.41550781 -40.25304688 108.14351562 -41.02734375 107.86328125 C-42.8125 106.375 -42.8125 106.375 -43.5625 103.4140625 C-44.00259033 98.43695848 -43.91935518 93.42916398 -43.875 88.4375 C-43.87048828 87.46748047 -43.86597656 86.49746094 -43.86132812 85.49804688 C-43.8496315 83.1236324 -43.83324086 80.74934979 -43.8125 78.375 C-41.5025 78.375 -39.1925 78.375 -36.8125 78.375 C-36.32330078 79.47908203 -36.32330078 79.47908203 -35.82421875 80.60546875 C-35.38722656 81.58128906 -34.95023438 82.55710937 -34.5 83.5625 C-34.07074219 84.52542969 -33.64148437 85.48835937 -33.19921875 86.48046875 C-29.59219485 94.00949609 -25.51191614 97.9218699 -17.8125 101.375 C-10.70192448 102.63453662 -4.19594022 101.68493196 2.1875 98.375 C5.40931258 93.64826181 4.73855224 87.83409086 4.1875 82.375 C0.79935761 73.82397396 -9.83598193 69.89210403 -17.51074219 65.72460938 C-38.2952788 54.4094424 -38.2952788 54.4094424 -42.8125 45.375 C-44.67449776 36.70268166 -46.1702903 23.87863669 -41.20703125 16.07421875 C-29.51096307 1.8227071 -17.99184582 0.0198476 0 0 Z " fill="#F7F5F8" transform="translate(1604.8125,626.625)"/>
<path d="M0 0 C2.11925604 2.11925604 1.41831017 6.6196093 1.5625 9.5625 C1.60568359 10.36880859 1.64886719 11.17511719 1.69335938 12.00585938 C1.79975262 14.00368805 1.90040888 16.0018207 2 18 C2.9178125 17.19175781 3.835625 16.38351562 4.78125 15.55078125 C22.39710388 0.14321679 22.39710388 0.14321679 32.38671875 0.640625 C38.22991169 1.44417321 42.69386984 3.93993442 47 8 C49.67439568 12.42887511 50.06924776 16.97057533 49 22 C45.97049797 25.94705355 42.05768728 28.68687367 37.125 29.4375 C32.14811011 29.42706627 28.18295903 26.70701485 23.96484375 24.3125 C20.61107909 22.82782948 18.62591469 22.49937103 15 23 C12.55889854 24.44413399 12.55889854 24.44413399 10.4375 26.4375 C7.22950961 29.26807976 5.19843264 30.29150092 1 31 C1.21531621 39.2585388 1.44064443 47.51671832 1.67867851 55.77463055 C1.78890028 59.60932448 1.89570064 63.44404951 1.99462891 67.27905273 C2.09026766 70.981618 2.19496291 74.68382742 2.3058815 78.38596535 C2.34657016 79.79682336 2.38402188 81.20777865 2.41814804 82.61881065 C2.46658782 84.59856141 2.52771492 86.57798933 2.58935547 88.55737305 C2.63598831 90.24614815 2.63598831 90.24614815 2.68356323 91.96903992 C3.00478806 95.045862 3.53809857 97.2760633 5 100 C7.95257182 101.00976033 7.95257182 101.00976033 11.375 101.25 C18.81343284 102.08955224 18.81343284 102.08955224 22 103 C22 105.31 22 107.62 22 110 C2.86 110 -16.28 110 -36 110 C-36 107.69 -36 105.38 -36 103 C-35.07316406 102.81824219 -34.14632813 102.63648438 -33.19140625 102.44921875 C-31.99386719 102.19785156 -30.79632812 101.94648437 -29.5625 101.6875 C-28.36753906 101.44386719 -27.17257812 101.20023438 -25.94140625 100.94921875 C-24.97074219 100.63597656 -24.00007813 100.32273437 -23 100 C-21.83436436 96.50309309 -21.84426756 93.71269166 -21.80712891 90.02172852 C-21.79895142 89.31570496 -21.79077393 88.6096814 -21.78234863 87.88226318 C-21.75755169 85.54781944 -21.74099642 83.21343612 -21.7265625 80.87890625 C-21.72123882 80.08127302 -21.71591515 79.28363979 -21.71043015 78.46183586 C-21.68372774 74.24271481 -21.66434061 70.0236231 -21.64990234 65.80444336 C-21.63654315 62.31133961 -21.60865111 58.81881729 -21.56787109 55.32592773 C-21.51862616 51.1078606 -21.49379215 46.89032225 -21.48667526 42.6719799 C-21.47995366 41.06477013 -21.46470783 39.45757258 -21.44078445 37.85052681 C-21.40921592 35.60227757 -21.40908172 33.35607804 -21.41650391 31.10766602 C-21.40841705 29.82875992 -21.4003302 28.54985382 -21.39199829 27.23219299 C-21.7180407 23.83797913 -21.7180407 23.83797913 -24.36923218 21.60752869 C-27.11124454 19.93202411 -29.15602091 19.25503665 -32.3125 18.75 C-33.19550781 18.60046875 -34.07851562 18.4509375 -34.98828125 18.296875 C-35.98408203 18.14992188 -35.98408203 18.14992188 -37 18 C-37 15.69 -37 13.38 -37 11 C-30.89143024 8.50370947 -24.74111826 6.12878291 -18.5625 3.8125 C-17.86447266 3.55065918 -17.16644531 3.28881836 -16.44726562 3.01904297 C-10.47135579 0.78607763 -6.33500998 -0.20435516 0 0 Z " fill="#F7F5F8" transform="translate(1214,626)"/>
<path d="M0 0 C2.31 0.33 4.62 0.66 7 1 C7 9.58 7 18.16 7 27 C9.44277344 26.98839844 11.88554688 26.97679687 14.40234375 26.96484375 C16.75870636 26.95705316 19.11506756 26.95097641 21.47143555 26.94506836 C23.11369464 26.94002826 24.75594923 26.93319622 26.39819336 26.92456055 C28.75375479 26.91248074 31.10925709 26.90676861 33.46484375 26.90234375 C34.20339096 26.89718246 34.94193817 26.89202118 35.7028656 26.88670349 C37.46898088 26.8865075 39.23497146 26.93805281 41 27 C42 28 42 28 42.1328125 30.6875 C42.13023438 31.780625 42.12765625 32.87375 42.125 34 C42.12886719 35.6396875 42.12886719 35.6396875 42.1328125 37.3125 C42 40 42 40 41 41 C38.47905924 41.08847743 35.98569107 41.11527301 33.46484375 41.09765625 C32.33496788 41.09553383 32.33496788 41.09553383 31.18226624 41.09336853 C28.7673044 41.08775376 26.35243399 41.07519883 23.9375 41.0625 C22.30403779 41.0574869 20.67057414 41.05292366 19.03710938 41.04882812 C15.02470415 41.03777954 11.01236759 41.02050506 7 41 C7.21578305 49.2067132 7.44120055 57.41308273 7.67867851 65.61919403 C7.78866988 69.43026445 7.89543004 73.24136655 7.99462891 77.05273438 C8.09061168 80.7358504 8.19531314 84.41862762 8.3058815 88.10133362 C8.34641625 89.50134258 8.38389063 90.90144385 8.41814804 92.30162048 C8.70002904 105.80809972 8.70002904 105.80809972 14 118 C14 118.66 14 119.32 14 120 C21.07025607 119.76073584 26.68056157 119.04234547 33.0234375 115.859375 C35.75616186 114.67123397 38.07058401 114.633823 41 115 C42 116 42 116 42.625 118.625 C41.74678888 123.36734007 39.19565832 124.61870842 35.359375 127.2890625 C32.98487068 129.01097127 31.06074864 130.92182431 29 133 C20.99634762 137.10998365 9.73904128 137.36498365 1.1875 134.8125 C-3.81552893 132.86489231 -7.68574495 130.55690005 -10.21875 125.62890625 C-12.99264809 118.96164407 -14.12638149 113.15278154 -14.11352539 105.91479492 C-14.11367142 105.22156128 -14.11381744 104.52832764 -14.1139679 103.81408691 C-14.11327451 101.53618171 -14.10550915 99.25835957 -14.09765625 96.98046875 C-14.09579003 95.39577784 -14.09436709 93.81108635 -14.09336853 92.22639465 C-14.08955943 88.0655049 -14.07974292 83.90465032 -14.06866455 79.74377441 C-14.05841582 75.49390132 -14.0538635 71.24402252 -14.04882812 66.99414062 C-14.03811916 58.66274251 -14.02053542 50.33137969 -14 42 C-18.95 42 -23.9 42 -29 42 C-29 34.13859911 -29 34.13859911 -24.4375 29.5625 C-23.50612032 28.5993354 -22.57513173 27.63579247 -21.64453125 26.671875 C-20.77183594 25.79015625 -19.89914062 24.9084375 -19 24 C-12.00501393 16.53463525 -6.06675694 8.21860886 0 0 Z " fill="#F5F4F8" transform="translate(1079,373)"/>
<path d="M0 0 C0 8.91 0 17.82 0 27 C11.22 27 22.44 27 34 27 C34 31.29 34 35.58 34 40 C31.04189524 41.47905238 28.0452845 41.12190903 24.8046875 41.09765625 C24.09724396 41.0962413 23.38980042 41.09482635 22.66091919 41.09336853 C20.39890331 41.087766 18.13698602 41.07521318 15.875 41.0625 C14.34244935 41.05748532 12.80989714 41.05292236 11.27734375 41.04882812 C7.51819112 41.03779577 3.75911228 41.02052952 0 41 C0.08479022 48.91125443 0.17981904 56.82229444 0.28752708 64.73326683 C0.33723971 68.40758954 0.38356941 72.08188692 0.421875 75.75634766 C0.45904729 79.30968666 0.50548833 82.86279986 0.55806351 86.41594315 C0.58531505 88.41527092 0.60323721 90.41471894 0.62094116 92.41415405 C0.76939232 101.68245735 1.01387242 110.89754268 6 119 C9.77200602 120.88600301 13.89301617 120.51883439 18 120 C21.22024467 118.83581841 24.25800524 117.49445392 27.3359375 115.99609375 C30 115 30 115 32.2265625 115.16015625 C34 116 34 116 36 119 C35.07116681 124.57299913 30.23650373 127.75714896 26 131 C17.25880105 137.19323245 6.31225177 136.7373418 -4 136 C-9.56784588 134.61429923 -13.08194354 131.33284167 -16.7734375 127.07421875 C-19.89239887 121.79979681 -20.28901275 116.12449419 -20.22705078 110.13696289 C-20.22734283 109.38491577 -20.22763489 108.63286865 -20.22793579 107.85803223 C-20.22655318 105.39611888 -20.21104295 102.93451609 -20.1953125 100.47265625 C-20.19157856 98.75630356 -20.18873339 97.03994873 -20.18673706 95.32359314 C-20.17913059 90.82402579 -20.15950798 86.32458922 -20.1373291 81.82507324 C-20.1168061 77.22649911 -20.10772158 72.62790368 -20.09765625 68.02929688 C-20.07625906 59.01946479 -20.04110149 50.00976377 -20 41 C-25.61 41 -31.22 41 -37 41 C-37 34.87244902 -36.90946819 34.25626371 -32.93579102 30.20532227 C-32.35885498 29.64256592 -31.78191895 29.07980957 -31.1875 28.5 C-26.50939712 23.7190958 -22.14130725 18.86602185 -18.0625 13.5625 C-17.60738037 12.97774902 -17.15226074 12.39299805 -16.68334961 11.79052734 C-14.83222404 9.40566685 -13.0059596 7.00819609 -11.23046875 4.56640625 C-7.38349984 -0.47829968 -7.11132296 0 0 0 Z " fill="#F8F7F9" transform="translate(1359,603)"/>
<path d="M0 0 C0.02061493 1.19381287 0.04122986 2.38762573 0.06246948 3.61761475 C0.25785146 14.85970201 0.46331125 26.10156574 0.67867851 37.34328842 C0.78908004 43.12298713 0.89591069 48.90270618 0.99462891 54.68261719 C1.0900004 60.2589309 1.19468868 65.83499848 1.3058815 71.41101837 C1.34669053 73.54004042 1.38412304 75.66912991 1.41814804 77.79827118 C1.46632111 80.77689523 1.52641694 83.75505494 1.58935547 86.73339844 C1.60662186 88.05833313 1.60662186 88.05833313 1.62423706 89.41003418 C1.6438147 90.22329163 1.66339233 91.03654907 1.68356323 91.87445068 C1.69646833 92.57870052 1.70937344 93.28295036 1.7226696 94.00854111 C2.05578077 96.40055148 2.69437381 97.96816547 4 100 C7.92126804 101.99762711 11.64917679 103.34078436 16 104 C16 106.31 16 108.62 16 111 C-1.49 111 -18.98 111 -37 111 C-37 108.69 -37 106.38 -37 104 C-36.15695312 103.80664062 -35.31390625 103.61328125 -34.4453125 103.4140625 C-32.80175781 103.02347656 -32.80175781 103.02347656 -31.125 102.625 C-30.03445313 102.36976563 -28.94390625 102.11453125 -27.8203125 101.8515625 C-24.89591545 101.21093785 -24.89591545 101.21093785 -23 99 C-22.68469795 95.78892545 -22.68469795 95.78892545 -22.7253418 91.95166016 C-22.72023087 91.22627548 -22.71511993 90.50089081 -22.70985413 89.75352478 C-22.6959213 87.34862074 -22.69691787 84.94400217 -22.69921875 82.5390625 C-22.69533331 80.86998385 -22.69099896 79.2009062 -22.68623352 77.53182983 C-22.678763 74.02965087 -22.67906819 70.52757269 -22.68432617 67.02539062 C-22.69011636 62.53718599 -22.67320497 58.04939462 -22.6499815 53.56125832 C-22.63524768 50.11257514 -22.63437206 46.66399151 -22.63749123 43.21528244 C-22.63697765 41.56067462 -22.6317331 39.90606127 -22.62167931 38.25148392 C-22.60934126 35.93642632 -22.61609057 33.62217364 -22.62768555 31.30712891 C-22.62705612 29.98967682 -22.6264267 28.67222473 -22.6257782 27.31484985 C-23.01965247 23.82591879 -23.50437712 22.41922792 -26 20 C-28.71413626 19.09012589 -28.71413626 19.09012589 -31.6875 18.75 C-32.68136719 18.60046875 -33.67523437 18.4509375 -34.69921875 18.296875 C-35.45847656 18.19890625 -36.21773437 18.1009375 -37 18 C-37 15.36 -37 12.72 -37 10 C-31.70688029 7.90272615 -26.44761843 6.26785781 -20.94140625 4.828125 C-16.83210695 3.6711908 -12.83430607 2.23023154 -8.82421875 0.76953125 C-5.76359836 -0.06441373 -3.15735224 -0.05378283 0 0 Z " fill="#F5F4F7" transform="translate(1306,625)"/>
<path d="M0 0 C0.00586624 1.13703873 0.01173248 2.27407745 0.01777649 3.4455719 C0.07503928 14.17159935 0.1478197 24.89742475 0.23571491 35.62324619 C0.28040401 41.13724361 0.31966353 46.65116738 0.34643555 52.1652832 C0.37248284 57.48871348 0.41289576 62.81186016 0.46318626 68.13511467 C0.47984525 70.16399541 0.49136555 72.19292519 0.49761391 74.2218647 C0.50726537 77.06821405 0.53533759 79.91383943 0.56762695 82.76000977 C0.56619186 83.59511078 0.56475677 84.43021179 0.5632782 85.2906189 C0.65857838 91.24756941 1.69592236 95.97307448 5.39453125 100.83203125 C7.40660314 102.29580131 9.31075268 102.96414212 11.6875 103.6875 C12.49574219 103.93886719 13.30398438 104.19023437 14.13671875 104.44921875 C14.75160156 104.63097656 15.36648438 104.81273437 16 105 C16 106.98 16 108.96 16 111 C-1.82 111 -19.64 111 -38 111 C-38 108.69 -38 106.38 -38 104 C-37.09636719 103.74605469 -36.19273438 103.49210937 -35.26171875 103.23046875 C-34.08222656 102.88628906 -32.90273437 102.54210937 -31.6875 102.1875 C-30.51574219 101.85105469 -29.34398437 101.51460938 -28.13671875 101.16796875 C-24.45480777 99.81850522 -24.45480777 99.81850522 -22 97 C-21.55529442 93.81559532 -21.55529442 93.81559532 -21.64355469 90.11352539 C-21.64151031 89.4172554 -21.63946594 88.72098541 -21.63735962 88.00361633 C-21.63435092 85.70136268 -21.65283299 83.39982484 -21.671875 81.09765625 C-21.67493308 79.49727048 -21.67680883 77.89688205 -21.67755127 76.29649353 C-21.68215515 72.94145529 -21.69658238 69.58665695 -21.71875 66.23168945 C-21.74700954 61.93308856 -21.75795933 57.63467682 -21.7624321 53.33599186 C-21.76659181 50.03057466 -21.77641428 46.7251956 -21.78830719 43.4197979 C-21.79400131 41.83497865 -21.79876284 40.25015578 -21.80257416 38.66533089 C-21.80945836 36.44877845 -21.82310159 34.23237402 -21.83886719 32.01586914 C-21.84910919 30.12415733 -21.84910919 30.12415733 -21.85955811 28.19422913 C-21.90094073 24.83045418 -21.90094073 24.83045418 -23 21 C-27.62 20.01 -32.24 19.02 -37 18 C-37.33 15.69 -37.66 13.38 -38 11 C-36.77925781 10.62488281 -35.55851562 10.24976563 -34.30078125 9.86328125 C-32.63767554 9.34746616 -30.9749403 8.83045567 -29.3125 8.3125 C-28.44923096 8.04356934 -27.58596191 7.77463867 -26.6965332 7.49755859 C-20.58240385 5.5661826 -14.66584687 3.38950508 -8.76171875 0.8828125 C-5.69757266 -0.09667408 -3.19729357 -0.0623943 0 0 Z " fill="#F9F8FB" transform="translate(1469,395)"/>
<path d="M0 0 C0.01030746 0.8966185 0.02061493 1.793237 0.03123474 2.71702576 C0.1304108 11.28879675 0.23306228 19.86051824 0.33933926 28.43220425 C0.39382368 32.83588712 0.44709871 37.23957677 0.49731445 41.64331055 C0.72398808 61.44403924 1.01670317 81.21909497 2 101 C2.98750244 101.22051025 3.97500488 101.44102051 4.99243164 101.66821289 C14.875 103.875 14.875 103.875 16 105 C16 106.98 16 108.96 16 111 C-1.16 111 -18.32 111 -36 111 C-36 109.02 -36 107.04 -36 105 C-34.73542969 104.54560547 -34.73542969 104.54560547 -33.4453125 104.08203125 C-32.34960938 103.66308594 -31.25390625 103.24414062 -30.125 102.8125 C-29.03445313 102.40644531 -27.94390625 102.00039063 -26.8203125 101.58203125 C-23.37886545 99.65157965 -23.10891784 98.70779546 -22 95 C-21.69911052 91.87801404 -21.69911052 91.87801404 -21.74121094 88.48486328 C-21.73175446 86.53726608 -21.73175446 86.53726608 -21.72210693 84.55032349 C-21.7256877 83.14031844 -21.7297899 81.73031464 -21.734375 80.3203125 C-21.73302645 78.86449112 -21.73108433 77.40867018 -21.72857666 75.95285034 C-21.72563246 72.90488386 -21.72989904 69.85703483 -21.73925781 66.80908203 C-21.75063169 62.91657683 -21.74410164 59.02434809 -21.73211288 55.1318531 C-21.72485785 52.12570138 -21.72719923 49.1196143 -21.73236847 46.11346054 C-21.73369596 44.67904502 -21.73208904 43.2446235 -21.72740936 41.810215 C-21.72228656 39.79811985 -21.73148858 37.78600396 -21.74121094 35.77392578 C-21.74280212 34.63206818 -21.74439331 33.49021057 -21.74603271 32.31375122 C-22.02916586 28.61944552 -22.7434095 25.48440672 -24 22 C-28.10495452 19.13607824 -32.07386115 18.49261389 -37 18 C-37 15.69 -37 13.38 -37 11 C-28.99592486 7.93930898 -20.97680088 4.91861831 -12.875 2.125 C-11.10769531 1.51011719 -11.10769531 1.51011719 -9.3046875 0.8828125 C-6.02355247 0.0062918 -3.37242249 -0.06661139 0 0 Z " fill="#FAF9FB" transform="translate(1439,625)"/>
<path d="M0 0 C0.99 0 1.98 0 3 0 C3.67317708 2.01953125 4.34635417 4.0390625 5.01953125 6.05859375 C5.2341098 6.70219345 5.44868835 7.34579315 5.66976929 8.00889587 C6.87812867 11.63340833 8.08578322 15.25815333 9.29223633 18.88330078 C11.64864914 25.96150653 14.00942594 33.03809187 16.39466858 40.10664368 C17.41600304 43.13407935 18.43411531 46.16259421 19.45199585 49.19119263 C19.94161111 50.64492394 20.43283824 52.09811338 20.9256897 53.55075073 C21.61467686 55.58197072 22.29814715 57.61497053 22.98046875 59.6484375 C23.37129639 60.80520996 23.76212402 61.96198242 24.16479492 63.15380859 C25 66 25 66 25 69 C10.15 69 -4.7 69 -20 69 C-19.30788356 62.770952 -18.74321598 58.49729833 -16.859375 52.8046875 C-16.4061153 51.41008586 -15.95368806 50.01521347 -15.50195312 48.62011719 C-15.25936768 47.8785437 -15.01678223 47.13697021 -14.7668457 46.3729248 C-13.36550257 42.03661325 -12.03992083 37.67686035 -10.703125 33.3203125 C-10.13178689 31.46736265 -9.56017044 29.61449859 -8.98828125 27.76171875 C-8.10965801 24.91351095 -7.23158068 22.06513974 -6.35498047 19.21630859 C-5.49344694 16.41715167 -4.62973795 13.61867404 -3.765625 10.8203125 C-3.37035614 9.53303757 -3.37035614 9.53303757 -2.96710205 8.21975708 C-2.72304626 7.43067963 -2.47899048 6.64160217 -2.22753906 5.82861328 C-2.01389709 5.13518829 -1.80025513 4.44176331 -1.58013916 3.72732544 C-1 2 -1 2 0 0 Z " fill="#261358" transform="translate(1126,822)"/>
<path d="M0 0 C4.58841596 4.23904418 8.79224797 8.2398659 9.2734375 14.6328125 C9.74435111 29.25075575 9.74435111 29.25075575 5.63671875 34.48828125 C-0.29348863 39.96558496 -5.78164166 42.20539841 -13.75 42.3125 C-14.45382812 42.34150391 -15.15765625 42.37050781 -15.8828125 42.40039062 C-21.08030017 42.46318555 -23.82960031 41.32198027 -28 38 C-28.69867187 37.51402344 -29.39734375 37.02804687 -30.1171875 36.52734375 C-33.76732084 33.22600093 -35.15318066 30.3221928 -35.58203125 25.46484375 C-35.64410433 23.76900061 -35.67879022 22.07195644 -35.6875 20.375 C-35.69442871 19.5512085 -35.70135742 18.72741699 -35.70849609 17.87866211 C-35.51962946 11.51694016 -33.68515502 7.86906975 -29.2890625 3.171875 C-20.92358796 -3.97608916 -9.85635502 -5.59743619 0 0 Z " fill="#241556" transform="translate(1266,922)"/>
<path d="M0 0 C0.94994678 7.24334416 1.19126021 14.5160118 1.3125 21.8125 C1.34214844 22.71959717 1.37179687 23.62669434 1.40234375 24.5612793 C1.45244365 30.2168269 0.91407591 33.59919962 -3 38 C-8.6935899 42.43522401 -14.97714327 43.86100936 -22.09765625 43.55859375 C-26.97695803 42.61950875 -30.2676131 40.15635256 -34 37 C-35.2684375 36.13375 -35.2684375 36.13375 -36.5625 35.25 C-39.01540541 31.41066979 -38.67178538 27.4015938 -38 23 C-33.23805444 12.88086569 -21.21263996 5.79613303 -11.1484375 1.89453125 C-7.2050809 0.65568913 -4.17227858 0 0 0 Z " fill="#281759" transform="translate(1010,450)"/>
<path d="M0 0 C0.61047827 8.19785104 1.12639791 16.40549114 1.3125 24.625 C1.36857422 26.53152344 1.36857422 26.53152344 1.42578125 28.4765625 C0.76557829 33.93989342 -1.71061153 36.934853 -5.875 40.375 C-11.33856997 43.20752326 -18.05277927 42.75791217 -24 42 C-28.92004129 39.91523674 -34.51806676 36.96386649 -37 32 C-37.73287575 27.08897693 -38.24698287 22.17374356 -35.70703125 17.74609375 C-26.88282478 8.43269886 -12.94361514 -0.6812429 0 0 Z " fill="#251357" transform="translate(1134,682)"/>
<path d="M0 0 C3.0153824 1.12616376 4.85510561 2.62717405 7 5 C7.50402344 5.52335938 8.00804687 6.04671875 8.52734375 6.5859375 C13.98874751 13.51480987 12 18.26506567 12 28 C-1.86 28 -15.72 28 -30 28 C-27.57744402 15.88722009 -25.11608751 8.30234131 -15 1 C-10.54741024 -1.22629488 -4.83272825 -0.49655272 0 0 Z " fill="#261557" transform="translate(1512,636)"/>
<path d="M0 0 C3.63226716 2.34418587 7.04338877 5.08677754 9 9 C9.53852701 15.24691333 8.79424999 19.8742275 5 25 C1.15153893 27.79888078 -2.37418317 28.54795501 -7.04296875 28.3515625 C-11.33454195 27.58062121 -14.03100327 25.06589641 -16.875 21.9375 C-18.64214207 17.3232957 -18.66039919 12.87227848 -18 8 C-14.15067909 1.15676283 -7.64961645 -1.82677408 0 0 Z " fill="#F6F4F6" transform="translate(1464,346)"/>
<path d="M0 0 C3.82141533 1.59225639 5.82165536 3.5182691 8 7 C8.88327431 11.85458517 9.14391377 16.87764426 6.7578125 21.3046875 C3.84772754 24.79389384 1.63124626 26.69427424 -3.05078125 27.23828125 C-8.54775239 27.41866545 -11.7545588 26.84111347 -16 23 C-19.25015553 18.23310522 -19.53218983 14.58799317 -19 9 C-15.18661916 0.1690128 -8.88302227 -1.11037778 0 0 Z " fill="#F7F6F9" transform="translate(1434,577)"/>
<path d="M0 0 C3.71245359 1.64997937 6.39362363 3.89384424 9 7 C9.97579671 12.15163261 10.10261835 18.05175471 7.25 22.625 C3.924883 26.13484572 1.06468619 27.32483237 -3.75 27.5625 C-9.14597993 27.4905536 -11.74021182 25.40695585 -15.50390625 21.7265625 C-18.39044614 18.39535981 -18.336092 15.58427798 -18.28125 11.3203125 C-17.72429063 6.72539767 -15.21011252 4.0372393 -11.8125 1.125 C-7.81846585 -0.47261366 -4.24580165 -0.57229385 0 0 Z " fill="#F6F4F6" transform="translate(1300,577)"/>
<path d="M0 0 C4.58841596 4.23904418 8.79224797 8.2398659 9.2734375 14.6328125 C9.74435111 29.25075575 9.74435111 29.25075575 5.63671875 34.48828125 C-0.29348863 39.96558496 -5.78164166 42.20539841 -13.75 42.3125 C-14.45382812 42.34150391 -15.15765625 42.37050781 -15.8828125 42.40039062 C-21.08030017 42.46318555 -23.82960031 41.32198027 -28 38 C-28.69867187 37.51402344 -29.39734375 37.02804687 -30.1171875 36.52734375 C-33.76732084 33.22600093 -35.15318066 30.3221928 -35.58203125 25.46484375 C-35.64410433 23.76900061 -35.67879022 22.07195644 -35.6875 20.375 C-35.69442871 19.5512085 -35.70135742 18.72741699 -35.70849609 17.87866211 C-35.51962946 11.51694016 -33.68515502 7.86906975 -29.2890625 3.171875 C-20.92358796 -3.97608916 -9.85635502 -5.59743619 0 0 Z M-25.765625 6.15625 C-26.25546875 6.9296875 -26.7453125 7.703125 -27.25 8.5 C-27.75015625 9.2734375 -28.2503125 10.046875 -28.765625 10.84375 C-31.40194723 15.4489711 -31.74739082 19.89862235 -30.50390625 25.05859375 C-28.59892304 30.75201814 -25.8836119 34.55819405 -20.375 37.3125 C-14.14046891 38.58249707 -8.33756027 39.19003069 -2.5625 36.25 C3.43249051 31.1211663 3.43249051 31.1211663 5.23828125 23.63671875 C5.27501953 21.68185547 5.27501953 21.68185547 5.3125 19.6875 C5.34988281 18.39199219 5.38726563 17.09648438 5.42578125 15.76171875 C4.80659056 10.2912542 2.45203521 7.31037324 -1.5625 3.6875 C-5.35116779 1.06457615 -8.36678194 0.81745463 -12.875 0.75 C-13.90367188 0.72421875 -14.93234375 0.6984375 -15.9921875 0.671875 C-20.44373896 1.1574988 -22.9428705 2.70899229 -25.765625 6.15625 Z " fill="#E1DDE8" transform="translate(1266,922)"/>
<path d="M0 0 C4.29 0 8.58 0 13 0 C16 3 16 3 16.25 6.5625 C16 10 16 10 15 12 C14.34 12 13.68 12 13 12 C13.639375 13.010625 14.27875 14.02125 14.9375 15.0625 C17.06848956 18.75219924 17.65539613 21.77860255 18 26 C16.35 26 14.7 26 13 26 C12.67386719 25.28972656 12.34773438 24.57945312 12.01171875 23.84765625 C11.57472656 22.92855469 11.13773438 22.00945313 10.6875 21.0625 C10.25824219 20.14597656 9.82898437 19.22945312 9.38671875 18.28515625 C8.14921339 15.69030588 8.14921339 15.69030588 5 15 C5 18.63 5 22.26 5 26 C3.35 26 1.7 26 0 26 C0 17.42 0 8.84 0 0 Z " fill="#DED9E6" transform="translate(1246,929)"/>
<path d="M0 0 C0 0.66 0 1.32 0 2 C1.98 2.66 3.96 3.32 6 4 C6 4.33 6 4.66 6 5 C2.04 5 -1.92 5 -6 5 C-6 13.58 -6 22.16 -6 31 C-4.68 31 -3.36 31 -2 31 C-2 32.32 -2 33.64 -2 35 C-5.39690706 34.93206186 -8.02993742 34.79269222 -10.73046875 32.5859375 C-14.85688953 27.96027075 -16.68637793 23.82259862 -17.375 17.625 C-16.69567762 11.05821698 -13.40828806 5.84911687 -9 1 C-6.04335481 -0.4783226 -3.25770263 -0.06032783 0 0 Z " fill="#251457" transform="translate(1252,924)"/>
<path d="M0 0 C2.79578021 2.67422455 3.9586322 3.97696971 4.12025452 7.97390747 C4.1169236 9.88585403 4.1169236 9.88585403 4.11352539 11.83642578 C4.11367142 12.53897491 4.11381744 13.24152405 4.1139679 13.96536255 C4.11327014 16.29204373 4.10548419 18.61864527 4.09765625 20.9453125 C4.09579158 22.55671139 4.09436791 24.16811084 4.09336853 25.7795105 C4.0895472 30.02428752 4.07972018 34.26903042 4.06866455 38.51379395 C4.05844218 42.84382668 4.05386914 47.17386493 4.04882812 51.50390625 C4.03809758 60.00261984 4.02102575 68.50130568 4 77 C4.66 77 5.32 77 6 77 C6.33 78.98 6.66 80.96 7 83 C4.77426145 82.10970458 3.30820534 81.42893155 1.89306641 79.45947266 C0.57469893 75.82873619 0.64026607 72.2163748 0.5859375 68.3984375 C0.56652603 67.54068222 0.54711456 66.68292694 0.52711487 65.79917908 C0.46660689 62.99122115 0.42040401 60.18323957 0.375 57.375 C0.33711344 55.44164165 0.29877994 53.50829201 0.26000977 51.57495117 C-0.06588429 34.38357059 -0.1118823 17.19372781 0 0 Z " fill="#261B58" transform="translate(1051,644)"/>
<path d="M0 0 C0.99 0.33 1.98 0.66 3 1 C3.495 3.475 3.495 3.475 4 6 C-10.85 6 -25.7 6 -41 6 C-40.34 5.01 -39.68 4.02 -39 3 C-36.0204901 2.73346054 -33.2511418 2.65232216 -30.2734375 2.70703125 C-29.41062164 2.71127609 -28.54780579 2.71552094 -27.65884399 2.71989441 C-24.89724803 2.73671608 -22.13637617 2.77437402 -19.375 2.8125 C-17.50521886 2.82754236 -15.6354263 2.84123154 -13.765625 2.85351562 C-9.17680342 2.88663094 -4.58852456 2.93843661 0 3 C0 2.01 0 1.02 0 0 Z " fill="#140844" transform="translate(1147,885)"/>
<path d="M0 0 C4 1 4 1 5.23046875 2.9609375 C5.54628906 3.75757813 5.86210938 4.55421875 6.1875 5.375 C6.51105469 6.16648437 6.83460937 6.95796875 7.16796875 7.7734375 C7.81418799 9.50275658 8.4162069 11.24862071 9 13 C9.66 13.66 10.32 14.32 11 15 C7.14854957 16.92572521 2.19956748 16.04883218 -2 16 C-1.34 10.72 -0.68 5.44 0 0 Z " fill="#332263" transform="translate(1251,944)"/>
<path d="M0 0 C3.625 -0.1875 3.625 -0.1875 7 0 C7 0.66 7 1.32 7 2 C8.98 2.66 10.96 3.32 13 4 C13 4.33 13 4.66 13 5 C9.04 5 5.08 5 1 5 C1 13.58 1 22.16 1 31 C-2.70721669 27.29278331 -1.58402663 21.0872098 -1.75 16.0625 C-1.80542969 14.85658203 -1.86085938 13.65066406 -1.91796875 12.40820312 C-1.96050781 11.25384766 -2.00304688 10.09949219 -2.046875 8.91015625 C-2.08651367 7.84933838 -2.12615234 6.78852051 -2.16699219 5.69555664 C-2 3 -2 3 0 0 Z " fill="#130944" transform="translate(1245,924)"/>
<path d="M0 0 C7.51858702 -0.44444849 12.88751251 -0.68190531 19 4 C20.9375 6.25 20.9375 6.25 22 8 C19 10 19 10 16 10 C15.67 11.32 15.34 12.64 15 14 C14.731875 13.071875 14.46375 12.14375 14.1875 11.1875 C12.81926814 7.49109198 12.81926814 7.49109198 10 5 C8.00428677 4.32060826 6.00405227 3.65438441 4 3 C2.64296081 2.03241413 1.30474062 1.03702926 0 0 Z " fill="#2A1D5B" transform="translate(1247,923)"/>
<path d="M0 0 C5.53846154 -0.36923077 5.53846154 -0.36923077 7.875 1.5 C8.24625 1.995 8.6175 2.49 9 3 C7.62249945 8.51000221 5.04361132 13.02283299 1 17 C-2.375 18 -2.375 18 -5 18 C-4.63453919 15.29675018 -4.3132626 14.25299432 -2.15234375 12.5078125 C-1.42144531 12.05148437 -0.69054688 11.59515625 0.0625 11.125 C2.2477935 9.66844648 2.2477935 9.66844648 4 8 C4.67166707 4.74303896 4.67166707 4.74303896 4 2 C2.68 1.34 1.36 0.68 0 0 Z " fill="#221650" transform="translate(1116,487)"/>
<path d="M0 0 C3 1 3 1 3.9921875 2.890625 C4.28351563 3.66921875 4.57484375 4.4478125 4.875 5.25 C6.63728488 9.53276209 8.50995001 11.99467917 12 15 C8.14168466 14.73718722 6.37050306 14.33141329 3.4453125 11.71484375 C2.67960937 10.79832031 1.91390625 9.88179687 1.125 8.9375 C0.34382813 8.01839844 -0.43734375 7.09929688 -1.2421875 6.15234375 C-1.82226562 5.44207031 -2.40234375 4.73179687 -3 4 C-2.01 2.68 -1.02 1.36 0 0 Z " fill="#241A4F" transform="translate(1134,723)"/>
<path d="M0 0 C1.66611905 -0.042721 3.33382885 -0.04063832 5 0 C6 1 6 1 6.0625 4.0625 C6.041875 5.031875 6.02125 6.00125 6 7 C4.02 7 2.04 7 0 7 C0 4.69 0 2.38 0 0 Z " fill="#22194E" transform="translate(1251,933)"/>
<path d="M0 0 C1.37865234 0.47566406 1.37865234 0.47566406 2.78515625 0.9609375 C7.92495011 2.42945003 13.12457681 2.45907917 18.4375 2.625 C19.45521484 2.66367187 20.47292969 2.70234375 21.52148438 2.7421875 C24.01414936 2.83580872 26.5068195 2.92153993 29 3 C29 3.33 29 3.66 29 4 C19.43 4 9.86 4 0 4 C0 2.68 0 1.36 0 0 Z " fill="#2E1961" transform="translate(1483,658)"/>
<path d="M0 0 C1.32 0.66 2.64 1.32 4 2 C3.21625 2.763125 2.4325 3.52625 1.625 4.3125 C-1.07257717 6.90891805 -1.07257717 6.90891805 -3 10 C-3.99 10 -4.98 10 -6 10 C-5.58578031 5.16743695 -3.53586014 3.17320782 0 0 Z " fill="#150A48" transform="translate(1292,410)"/>
<path d="M0 0 C0.99 0.33 1.98 0.66 3 1 C2.39301257 5.12751449 0.96189209 8.3321148 -1 12 C-1.33 12 -1.66 12 -2 12 C-2.05395478 10.37536158 -2.09277195 8.75021459 -2.125 7.125 C-2.14820313 6.22007812 -2.17140625 5.31515625 -2.1953125 4.3828125 C-2 2 -2 2 0 0 Z " fill="#140A47" transform="translate(1282,427)"/>
<path d="M0 0 C0 0.99 0 1.98 0 3 C-0.62648438 3.04898438 -1.25296875 3.09796875 -1.8984375 3.1484375 C-2.71570313 3.22320313 -3.53296875 3.29796875 -4.375 3.375 C-5.18710937 3.44460938 -5.99921875 3.51421875 -6.8359375 3.5859375 C-9.20334191 3.82892588 -9.20334191 3.82892588 -11 6 C-10.625 3.5625 -10.625 3.5625 -10 1 C-6.78548731 -0.60725635 -3.56387464 -0.05748185 0 0 Z " fill="#120944" transform="translate(963,917)"/>
<path d="M0 0 C1.32 0.33 2.64 0.66 4 1 C4.33 4.3 4.66 7.6 5 11 C1 8 1 8 0.390625 5.95703125 C0.26041667 3.97135417 0.13020833 1.98567708 0 0 Z " fill="#271F52" transform="translate(964,924)"/>
<path d="M0 0 C0.33 1.32 0.66 2.64 1 4 C0.360625 4.12375 -0.27875 4.2475 -0.9375 4.375 C-1.9584375 4.684375 -1.9584375 4.684375 -3 5 C-3.33 5.66 -3.66 6.32 -4 7 C-4.66 6.67 -5.32 6.34 -6 6 C-5.8125 4.125 -5.8125 4.125 -5 2 C-2.4375 0.75 -2.4375 0.75 0 0 Z " fill="#130946" transform="translate(1268,931)"/>
</svg>
